<svg width="271" height="32" viewBox="0 0 271 32" fill="none" xmlns="http://www.w3.org/2000/svg">
<g filter="url(#filter0_i_202_2)">
<path d="M4.79625 20.76C4.79625 22.0667 5.10292 23.24 5.71625 24.28C6.35625 25.2933 7.19625 26.0933 8.23625 26.68C9.27625 27.2667 10.4496 27.56 11.7563 27.56C13.1163 27.56 14.3296 27.2667 15.3963 26.68C16.4629 26.0933 17.3029 25.2933 17.9163 24.28C18.5296 23.24 18.8363 22.0667 18.8363 20.76V2.08H22.6363V20.88C22.6363 22.9867 22.1429 24.8267 21.1563 26.4C20.1963 27.9733 18.8896 29.1867 17.2363 30.04C15.6096 30.8933 13.7829 31.32 11.7563 31.32C9.72958 31.32 7.90292 30.8933 6.27625 30.04C4.64958 29.1867 3.35625 27.9733 2.39625 26.4C1.43625 24.8267 0.95625 22.9867 0.95625 20.88V2.08H4.79625V20.76ZM32.9741 14.44L33.2941 18.48L33.1341 17.84C33.6674 16.6133 34.5341 15.64 35.7341 14.92C36.9341 14.1733 38.3207 13.8 39.8941 13.8C41.4674 13.8 42.7474 14.2667 43.7341 15.2C44.7474 16.1067 45.2674 17.2933 45.2941 18.76V31H41.5341V20.08C41.5074 19.1733 41.2407 18.44 40.7341 17.88C40.2541 17.2933 39.4941 17 38.4541 17C37.4941 17 36.6274 17.2667 35.8541 17.8C35.0807 18.3333 34.4674 19.0667 34.0141 20C33.5874 20.9333 33.3741 22.0133 33.3741 23.24V31H29.6541V14.44H32.9741ZM51.7634 31V0.0399981H55.4834V31H51.7634ZM59.4834 20L67.0834 31H62.7234L57.0034 22.08L59.4834 20ZM54.3234 25.72L53.9634 22.16L64.0034 14.08L66.2834 16.04L54.3234 25.72ZM75.0053 14.44L75.3253 18.48L75.1653 17.84C75.6986 16.6133 76.5653 15.64 77.7653 14.92C78.9653 14.1733 80.352 13.8 81.9253 13.8C83.4986 13.8 84.7786 14.2667 85.7653 15.2C86.7786 16.1067 87.2986 17.2933 87.3253 18.76V31H83.5653V20.08C83.5386 19.1733 83.272 18.44 82.7653 17.88C82.2853 17.2933 81.5253 17 80.4853 17C79.5253 17 78.6586 17.2667 77.8853 17.8C77.112 18.3333 76.4986 19.0667 76.0453 20C75.6186 20.9333 75.4053 22.0133 75.4053 23.24V31H71.6853V14.44H75.0053ZM92.3547 22.56C92.3547 20.9067 92.7414 19.4133 93.5147 18.08C94.3147 16.7467 95.408 15.6933 96.7947 14.92C98.1814 14.1467 99.7547 13.76 101.515 13.76C103.328 13.76 104.915 14.1467 106.275 14.92C107.635 15.6933 108.688 16.7467 109.435 18.08C110.181 19.4133 110.555 20.9067 110.555 22.56C110.555 24.2133 110.181 25.72 109.435 27.08C108.688 28.4133 107.621 29.4667 106.235 30.24C104.875 31.0133 103.288 31.4 101.475 31.4C99.7147 31.4 98.1414 31.04 96.7547 30.32C95.3947 29.5733 94.3147 28.5467 93.5147 27.24C92.7414 25.9067 92.3547 24.3467 92.3547 22.56ZM96.0747 22.6C96.0747 23.6667 96.3147 24.64 96.7947 25.52C97.2747 26.3733 97.9147 27.0533 98.7147 27.56C99.5414 28.0667 100.448 28.32 101.435 28.32C102.475 28.32 103.395 28.0667 104.195 27.56C105.021 27.0533 105.661 26.3733 106.115 25.52C106.568 24.64 106.795 23.6667 106.795 22.6C106.795 21.5333 106.568 20.5733 106.115 19.72C105.661 18.84 105.021 18.1467 104.195 17.64C103.395 17.1067 102.475 16.84 101.435 16.84C100.421 16.84 99.5014 17.1067 98.6747 17.64C97.8747 18.1733 97.2347 18.88 96.7547 19.76C96.3014 20.6133 96.0747 21.56 96.0747 22.6ZM125.684 14.44L130.564 25.6L129.844 25.68L134.404 14.44H138.044L130.444 32L125.124 20.64L120.284 32L112.604 14.44H116.244L121.404 26.12L120.124 25.88L123.804 17.32L122.484 14.44H125.684ZM145.357 14.44L145.677 18.48L145.517 17.84C146.05 16.6133 146.917 15.64 148.117 14.92C149.317 14.1733 150.704 13.8 152.277 13.8C153.85 13.8 155.13 14.2667 156.117 15.2C157.13 16.1067 157.65 17.2933 157.677 18.76V31H153.917V20.08C153.89 19.1733 153.624 18.44 153.117 17.88C152.637 17.2933 151.877 17 150.837 17C149.877 17 149.01 17.2667 148.237 17.8C147.464 18.3333 146.85 19.0667 146.397 20C145.97 20.9333 145.757 22.0133 145.757 23.24V31H142.037V14.44H145.357ZM174.843 31L187.483 0.879999H187.723L200.323 31H195.883L186.443 6.96L189.203 5.16L178.643 31H174.843ZM182.243 20.04H193.003L194.283 23.4H181.123L182.243 20.04ZM208.169 14.44L208.529 19.24L208.329 18.6C208.756 17.5867 209.369 16.7333 210.169 16.04C210.996 15.32 211.849 14.7733 212.729 14.4C213.636 14 214.423 13.8 215.089 13.8L214.889 17.48C213.636 17.4 212.529 17.64 211.569 18.2C210.636 18.76 209.889 19.5067 209.329 20.44C208.796 21.3733 208.529 22.3733 208.529 23.44V31H204.849V14.44H208.169ZM221.488 7.16H225.208V14.52H229.768V17.44H225.208V31H221.488V17.44H218.448V14.52H221.488V7.16ZM234.263 14.44H237.983V31H234.263V14.44ZM233.983 8.44C233.983 7.85333 234.21 7.36 234.663 6.96C235.143 6.56 235.663 6.36 236.223 6.36C236.783 6.36 237.277 6.56 237.703 6.96C238.157 7.36 238.383 7.85333 238.383 8.44C238.383 9.05333 238.157 9.56 237.703 9.96C237.277 10.3333 236.783 10.52 236.223 10.52C235.663 10.52 235.143 10.32 234.663 9.92C234.21 9.52 233.983 9.02667 233.983 8.44ZM249.06 31.32C247.886 31.32 246.74 31.12 245.62 30.72C244.526 30.2933 243.62 29.6667 242.9 28.84L244.46 26.68C245.153 27.3467 245.86 27.8533 246.58 28.2C247.326 28.52 248.06 28.68 248.78 28.68C249.313 28.68 249.806 28.6133 250.26 28.48C250.713 28.3467 251.073 28.1333 251.34 27.84C251.633 27.52 251.78 27.0933 251.78 26.56C251.78 25.9733 251.58 25.5067 251.18 25.16C250.806 24.8133 250.313 24.5333 249.7 24.32C249.113 24.1067 248.486 23.9067 247.82 23.72C246.46 23.2667 245.42 22.64 244.7 21.84C243.98 21.04 243.62 20.0667 243.62 18.92C243.62 18.04 243.833 17.2267 244.26 16.48C244.713 15.7067 245.366 15.08 246.22 14.6C247.1 14.12 248.18 13.88 249.46 13.88C250.606 13.88 251.633 14.0267 252.54 14.32C253.446 14.5867 254.3 15.04 255.1 15.68L253.62 18C253.14 17.4933 252.566 17.12 251.9 16.88C251.233 16.64 250.633 16.5067 250.1 16.48C249.646 16.4533 249.206 16.52 248.78 16.68C248.38 16.84 248.046 17.0667 247.78 17.36C247.513 17.6533 247.38 18 247.38 18.4C247.38 18.96 247.566 19.4133 247.94 19.76C248.313 20.1067 248.793 20.3867 249.38 20.6C249.993 20.7867 250.593 20.9867 251.18 21.2C252.006 21.44 252.74 21.76 253.38 22.16C254.02 22.56 254.526 23.0533 254.9 23.64C255.3 24.2267 255.5 24.96 255.5 25.84C255.5 26.8267 255.26 27.7467 254.78 28.6C254.326 29.4267 253.62 30.0933 252.66 30.6C251.726 31.08 250.526 31.32 249.06 31.32ZM262.309 7.16H266.029V14.52H270.589V17.44H266.029V31H262.309V17.44H259.269V14.52H262.309V7.16Z" fill="url(#paint0_linear_202_2)" fill-opacity="0.97" style="mix-blend-mode:lighten"/>
<path d="M4.79625 20.76C4.79625 22.0667 5.10292 23.24 5.71625 24.28C6.35625 25.2933 7.19625 26.0933 8.23625 26.68C9.27625 27.2667 10.4496 27.56 11.7563 27.56C13.1163 27.56 14.3296 27.2667 15.3963 26.68C16.4629 26.0933 17.3029 25.2933 17.9163 24.28C18.5296 23.24 18.8363 22.0667 18.8363 20.76V2.08H22.6363V20.88C22.6363 22.9867 22.1429 24.8267 21.1563 26.4C20.1963 27.9733 18.8896 29.1867 17.2363 30.04C15.6096 30.8933 13.7829 31.32 11.7563 31.32C9.72958 31.32 7.90292 30.8933 6.27625 30.04C4.64958 29.1867 3.35625 27.9733 2.39625 26.4C1.43625 24.8267 0.95625 22.9867 0.95625 20.88V2.08H4.79625V20.76ZM32.9741 14.44L33.2941 18.48L33.1341 17.84C33.6674 16.6133 34.5341 15.64 35.7341 14.92C36.9341 14.1733 38.3207 13.8 39.8941 13.8C41.4674 13.8 42.7474 14.2667 43.7341 15.2C44.7474 16.1067 45.2674 17.2933 45.2941 18.76V31H41.5341V20.08C41.5074 19.1733 41.2407 18.44 40.7341 17.88C40.2541 17.2933 39.4941 17 38.4541 17C37.4941 17 36.6274 17.2667 35.8541 17.8C35.0807 18.3333 34.4674 19.0667 34.0141 20C33.5874 20.9333 33.3741 22.0133 33.3741 23.24V31H29.6541V14.44H32.9741ZM51.7634 31V0.0399981H55.4834V31H51.7634ZM59.4834 20L67.0834 31H62.7234L57.0034 22.08L59.4834 20ZM54.3234 25.72L53.9634 22.16L64.0034 14.08L66.2834 16.04L54.3234 25.72ZM75.0053 14.44L75.3253 18.48L75.1653 17.84C75.6986 16.6133 76.5653 15.64 77.7653 14.92C78.9653 14.1733 80.352 13.8 81.9253 13.8C83.4986 13.8 84.7786 14.2667 85.7653 15.2C86.7786 16.1067 87.2986 17.2933 87.3253 18.76V31H83.5653V20.08C83.5386 19.1733 83.272 18.44 82.7653 17.88C82.2853 17.2933 81.5253 17 80.4853 17C79.5253 17 78.6586 17.2667 77.8853 17.8C77.112 18.3333 76.4986 19.0667 76.0453 20C75.6186 20.9333 75.4053 22.0133 75.4053 23.24V31H71.6853V14.44H75.0053ZM92.3547 22.56C92.3547 20.9067 92.7414 19.4133 93.5147 18.08C94.3147 16.7467 95.408 15.6933 96.7947 14.92C98.1814 14.1467 99.7547 13.76 101.515 13.76C103.328 13.76 104.915 14.1467 106.275 14.92C107.635 15.6933 108.688 16.7467 109.435 18.08C110.181 19.4133 110.555 20.9067 110.555 22.56C110.555 24.2133 110.181 25.72 109.435 27.08C108.688 28.4133 107.621 29.4667 106.235 30.24C104.875 31.0133 103.288 31.4 101.475 31.4C99.7147 31.4 98.1414 31.04 96.7547 30.32C95.3947 29.5733 94.3147 28.5467 93.5147 27.24C92.7414 25.9067 92.3547 24.3467 92.3547 22.56ZM96.0747 22.6C96.0747 23.6667 96.3147 24.64 96.7947 25.52C97.2747 26.3733 97.9147 27.0533 98.7147 27.56C99.5414 28.0667 100.448 28.32 101.435 28.32C102.475 28.32 103.395 28.0667 104.195 27.56C105.021 27.0533 105.661 26.3733 106.115 25.52C106.568 24.64 106.795 23.6667 106.795 22.6C106.795 21.5333 106.568 20.5733 106.115 19.72C105.661 18.84 105.021 18.1467 104.195 17.64C103.395 17.1067 102.475 16.84 101.435 16.84C100.421 16.84 99.5014 17.1067 98.6747 17.64C97.8747 18.1733 97.2347 18.88 96.7547 19.76C96.3014 20.6133 96.0747 21.56 96.0747 22.6ZM125.684 14.44L130.564 25.6L129.844 25.68L134.404 14.44H138.044L130.444 32L125.124 20.64L120.284 32L112.604 14.44H116.244L121.404 26.12L120.124 25.88L123.804 17.32L122.484 14.44H125.684ZM145.357 14.44L145.677 18.48L145.517 17.84C146.05 16.6133 146.917 15.64 148.117 14.92C149.317 14.1733 150.704 13.8 152.277 13.8C153.85 13.8 155.13 14.2667 156.117 15.2C157.13 16.1067 157.65 17.2933 157.677 18.76V31H153.917V20.08C153.89 19.1733 153.624 18.44 153.117 17.88C152.637 17.2933 151.877 17 150.837 17C149.877 17 149.01 17.2667 148.237 17.8C147.464 18.3333 146.85 19.0667 146.397 20C145.97 20.9333 145.757 22.0133 145.757 23.24V31H142.037V14.44H145.357ZM174.843 31L187.483 0.879999H187.723L200.323 31H195.883L186.443 6.96L189.203 5.16L178.643 31H174.843ZM182.243 20.04H193.003L194.283 23.4H181.123L182.243 20.04ZM208.169 14.44L208.529 19.24L208.329 18.6C208.756 17.5867 209.369 16.7333 210.169 16.04C210.996 15.32 211.849 14.7733 212.729 14.4C213.636 14 214.423 13.8 215.089 13.8L214.889 17.48C213.636 17.4 212.529 17.64 211.569 18.2C210.636 18.76 209.889 19.5067 209.329 20.44C208.796 21.3733 208.529 22.3733 208.529 23.44V31H204.849V14.44H208.169ZM221.488 7.16H225.208V14.52H229.768V17.44H225.208V31H221.488V17.44H218.448V14.52H221.488V7.16ZM234.263 14.44H237.983V31H234.263V14.44ZM233.983 8.44C233.983 7.85333 234.21 7.36 234.663 6.96C235.143 6.56 235.663 6.36 236.223 6.36C236.783 6.36 237.277 6.56 237.703 6.96C238.157 7.36 238.383 7.85333 238.383 8.44C238.383 9.05333 238.157 9.56 237.703 9.96C237.277 10.3333 236.783 10.52 236.223 10.52C235.663 10.52 235.143 10.32 234.663 9.92C234.21 9.52 233.983 9.02667 233.983 8.44ZM249.06 31.32C247.886 31.32 246.74 31.12 245.62 30.72C244.526 30.2933 243.62 29.6667 242.9 28.84L244.46 26.68C245.153 27.3467 245.86 27.8533 246.58 28.2C247.326 28.52 248.06 28.68 248.78 28.68C249.313 28.68 249.806 28.6133 250.26 28.48C250.713 28.3467 251.073 28.1333 251.34 27.84C251.633 27.52 251.78 27.0933 251.78 26.56C251.78 25.9733 251.58 25.5067 251.18 25.16C250.806 24.8133 250.313 24.5333 249.7 24.32C249.113 24.1067 248.486 23.9067 247.82 23.72C246.46 23.2667 245.42 22.64 244.7 21.84C243.98 21.04 243.62 20.0667 243.62 18.92C243.62 18.04 243.833 17.2267 244.26 16.48C244.713 15.7067 245.366 15.08 246.22 14.6C247.1 14.12 248.18 13.88 249.46 13.88C250.606 13.88 251.633 14.0267 252.54 14.32C253.446 14.5867 254.3 15.04 255.1 15.68L253.62 18C253.14 17.4933 252.566 17.12 251.9 16.88C251.233 16.64 250.633 16.5067 250.1 16.48C249.646 16.4533 249.206 16.52 248.78 16.68C248.38 16.84 248.046 17.0667 247.78 17.36C247.513 17.6533 247.38 18 247.38 18.4C247.38 18.96 247.566 19.4133 247.94 19.76C248.313 20.1067 248.793 20.3867 249.38 20.6C249.993 20.7867 250.593 20.9867 251.18 21.2C252.006 21.44 252.74 21.76 253.38 22.16C254.02 22.56 254.526 23.0533 254.9 23.64C255.3 24.2267 255.5 24.96 255.5 25.84C255.5 26.8267 255.26 27.7467 254.78 28.6C254.326 29.4267 253.62 30.0933 252.66 30.6C251.726 31.08 250.526 31.32 249.06 31.32ZM262.309 7.16H266.029V14.52H270.589V17.44H266.029V31H262.309V17.44H259.269V14.52H262.309V7.16Z" fill="url(#paint1_linear_202_2)" fill-opacity="0.46"/>
</g>
<path d="M5.71625 24.28L4.85488 24.788L4.86263 24.8011L4.87076 24.814L5.71625 24.28ZM8.23625 26.68L7.74493 27.551L7.74493 27.551L8.23625 26.68ZM15.3963 26.68L15.8782 27.5562L15.8782 27.5562L15.3963 26.68ZM17.9163 24.28L18.7718 24.7978L18.7776 24.788L17.9163 24.28ZM18.8363 2.08V1.08H17.8363V2.08H18.8363ZM22.6363 2.08H23.6363V1.08H22.6363V2.08ZM21.1563 26.4L20.309 25.8687L20.3026 25.8791L21.1563 26.4ZM17.2363 30.04L16.7776 29.1514L16.7717 29.1545L17.2363 30.04ZM6.27625 30.04L6.7408 29.1545L6.7408 29.1545L6.27625 30.04ZM2.39625 26.4L3.24989 25.8791L3.24989 25.8791L2.39625 26.4ZM0.95625 2.08V1.08H-0.0437497V2.08H0.95625ZM4.79625 2.08H5.79625V1.08H4.79625V2.08ZM3.79625 20.76C3.79625 22.2302 4.14337 23.5815 4.85488 24.788L6.57762 23.772C6.06246 22.8985 5.79625 21.9032 5.79625 20.76H3.79625ZM4.87076 24.814C5.59877 25.9667 6.56025 26.8827 7.74493 27.551L8.72757 25.809C7.83225 25.304 7.11373 24.62 6.56174 23.746L4.87076 24.814ZM7.74493 27.551C8.94874 28.2301 10.2941 28.56 11.7563 28.56V26.56C10.6051 26.56 9.60376 26.3033 8.72757 25.809L7.74493 27.551ZM11.7563 28.56C13.2646 28.56 14.6472 28.2333 15.8782 27.5562L14.9143 25.8038C14.012 26.3001 12.9679 26.56 11.7563 26.56V28.56ZM15.8782 27.5562C17.0942 26.8874 18.0649 25.9656 18.7718 24.7978L17.0608 23.7622C16.5409 24.621 15.8316 25.2993 14.9143 25.8038L15.8782 27.5562ZM18.7776 24.788C19.4891 23.5815 19.8363 22.2302 19.8363 20.76H17.8363C17.8363 21.9032 17.57 22.8985 17.0549 23.772L18.7776 24.788ZM19.8363 20.76V2.08H17.8363V20.76H19.8363ZM18.8363 3.08H22.6363V1.08H18.8363V3.08ZM21.6363 2.08V20.88H23.6363V2.08H21.6363ZM21.6363 20.88C21.6363 22.8246 21.183 24.4752 20.3091 25.8687L22.0034 26.9313C23.1029 25.1781 23.6363 23.1487 23.6363 20.88H21.6363ZM20.3026 25.8791C19.439 27.2944 18.2697 28.3813 16.7776 29.1514L17.6949 30.9286C19.5095 29.9921 20.9535 28.6522 22.0099 26.9209L20.3026 25.8791ZM16.7717 29.1545C15.3027 29.9251 13.6381 30.32 11.7563 30.32V32.32C13.9277 32.32 15.9165 31.8616 17.7008 30.9255L16.7717 29.1545ZM11.7563 30.32C9.87439 30.32 8.20981 29.9251 6.7408 29.1545L5.8117 30.9255C7.59603 31.8616 9.58478 32.32 11.7563 32.32V30.32ZM6.7408 29.1545C5.27502 28.3855 4.11593 27.2985 3.24989 25.8791L1.54261 26.9209C2.59657 28.6482 4.02415 29.9878 5.8117 30.9255L6.7408 29.1545ZM3.24989 25.8791C2.39868 24.4841 1.95625 22.8297 1.95625 20.88H-0.0437497C-0.0437497 23.1436 0.473817 25.1692 1.54261 26.9209L3.24989 25.8791ZM1.95625 20.88V2.08H-0.0437497V20.88H1.95625ZM0.95625 3.08H4.79625V1.08H0.95625V3.08ZM3.79625 2.08V20.76H5.79625V2.08H3.79625ZM32.9741 14.44L33.9709 14.361L33.898 13.44H32.9741V14.44ZM33.2941 18.48L32.3239 18.7225L34.2909 18.401L33.2941 18.48ZM33.1341 17.84L32.217 17.4413L32.0815 17.7529L32.1639 18.0825L33.1341 17.84ZM35.7341 14.92L36.2486 15.7775L36.2555 15.7733L36.2624 15.7691L35.7341 14.92ZM43.7341 15.2L43.0469 15.9265L43.0569 15.936L43.0673 15.9452L43.7341 15.2ZM45.2941 18.76H46.2941V18.7509L46.2939 18.7418L45.2941 18.76ZM45.2941 31V32H46.2941V31H45.2941ZM41.5341 31H40.5341V32H41.5341V31ZM41.5341 20.08H42.5341V20.0653L42.5336 20.0506L41.5341 20.08ZM40.7341 17.88L39.9601 18.5132L39.9758 18.5325L39.9925 18.5509L40.7341 17.88ZM34.0141 20L33.1146 19.5631L33.1094 19.5736L33.1046 19.5842L34.0141 20ZM33.3741 31V32H34.3741V31H33.3741ZM29.6541 31H28.6541V32H29.6541V31ZM29.6541 14.44V13.44H28.6541V14.44H29.6541ZM31.9772 14.519L32.2972 18.559L34.2909 18.401L33.9709 14.361L31.9772 14.519ZM34.2642 18.2375L34.1042 17.5975L32.1639 18.0825L32.3239 18.7225L34.2642 18.2375ZM34.0511 18.2387C34.4974 17.2124 35.2185 16.3955 36.2486 15.7775L35.2196 14.0625C33.8496 14.8845 32.8374 16.0143 32.217 17.4413L34.0511 18.2387ZM36.2624 15.7691C37.2863 15.132 38.4857 14.8 39.8941 14.8V12.8C38.1558 12.8 36.5819 13.2147 35.2058 14.0709L36.2624 15.7691ZM39.8941 14.8C41.2552 14.8 42.2752 15.1965 43.0469 15.9265L44.4213 14.4735C43.2196 13.3368 41.6796 12.8 39.8941 12.8V14.8ZM43.0673 15.9452C43.8557 16.6507 44.2722 17.5651 44.2942 18.7782L46.2939 18.7418C46.2626 17.0215 45.6391 15.5626 44.4009 14.4548L43.0673 15.9452ZM44.2941 18.76V31H46.2941V18.76H44.2941ZM45.2941 30H41.5341V32H45.2941V30ZM42.5341 31V20.08H40.5341V31H42.5341ZM42.5336 20.0506C42.5014 18.9562 42.1724 17.9793 41.4756 17.2091L39.9925 18.5509C40.309 18.9007 40.5134 19.3905 40.5345 20.1094L42.5336 20.0506ZM41.508 17.2468C40.7743 16.35 39.6761 16 38.4541 16V18C39.312 18 39.7339 18.2367 39.9601 18.5132L41.508 17.2468ZM38.4541 16C37.296 16 36.2305 16.3257 35.2863 16.9768L36.4218 18.6232C37.0243 18.2077 37.6921 18 38.4541 18V16ZM35.2863 16.9768C34.3564 17.6181 33.6352 18.4911 33.1146 19.5631L34.9136 20.4369C35.2996 19.6422 35.805 19.0486 36.4218 18.6232L35.2863 16.9768ZM33.1046 19.5842C32.6078 20.671 32.3741 21.8975 32.3741 23.24H34.3741C34.3741 22.1292 34.567 21.1956 34.9235 20.4158L33.1046 19.5842ZM32.3741 23.24V31H34.3741V23.24H32.3741ZM33.3741 30H29.6541V32H33.3741V30ZM30.6541 31V14.44H28.6541V31H30.6541ZM29.6541 15.44H32.9741V13.44H29.6541V15.44ZM51.7634 31H50.7634V32H51.7634V31ZM51.7634 0.0399981V-0.960002H50.7634V0.0399981H51.7634ZM55.4834 0.0399981H56.4834V-0.960002H55.4834V0.0399981ZM55.4834 31V32H56.4834V31H55.4834ZM59.4834 20L60.3062 19.4316L59.6821 18.5283L58.8408 19.2338L59.4834 20ZM67.0834 31V32H68.9898L67.9062 30.4316L67.0834 31ZM62.7234 31L61.8816 31.5398L62.1768 32H62.7234V31ZM57.0034 22.08L56.3608 21.3138L55.6867 21.8792L56.1616 22.6198L57.0034 22.08ZM54.3234 25.72L53.3285 25.8206L53.5146 27.6611L54.9526 26.4973L54.3234 25.72ZM53.9634 22.16L53.3365 21.381L52.9139 21.721L52.9685 22.2606L53.9634 22.16ZM64.0034 14.08L64.6553 13.3217L64.0245 12.7794L63.3765 13.301L64.0034 14.08ZM66.2834 16.04L66.9126 16.8173L67.8444 16.0631L66.9353 15.2817L66.2834 16.04ZM52.7634 31V0.0399981H50.7634V31H52.7634ZM51.7634 1.04H55.4834V-0.960002H51.7634V1.04ZM54.4834 0.0399981V31H56.4834V0.0399981H54.4834ZM55.4834 30H51.7634V32H55.4834V30ZM58.6607 20.5684L66.2607 31.5684L67.9062 30.4316L60.3062 19.4316L58.6607 20.5684ZM67.0834 30H62.7234V32H67.0834V30ZM63.5652 30.4602L57.8452 21.5402L56.1616 22.6198L61.8816 31.5398L63.5652 30.4602ZM57.6461 22.8462L60.1261 20.7662L58.8408 19.2338L56.3608 21.3138L57.6461 22.8462ZM55.3184 25.6194L54.9584 22.0594L52.9685 22.2606L53.3285 25.8206L55.3184 25.6194ZM54.5904 22.939L64.6304 14.859L63.3765 13.301L53.3365 21.381L54.5904 22.939ZM63.3516 14.8383L65.6316 16.7983L66.9353 15.2817L64.6553 13.3217L63.3516 14.8383ZM65.6543 15.2627L53.6943 24.9427L54.9526 26.4973L66.9126 16.8173L65.6543 15.2627ZM75.0053 14.44L76.0022 14.361L75.9292 13.44H75.0053V14.44ZM75.3253 18.48L74.3552 18.7225L76.3222 18.401L75.3253 18.48ZM75.1653 17.84L74.2482 17.4413L74.1128 17.7529L74.1952 18.0825L75.1653 17.84ZM77.7653 14.92L78.2798 15.7775L78.2867 15.7733L78.2936 15.7691L77.7653 14.92ZM85.7653 15.2L85.0781 15.9265L85.0882 15.936L85.0985 15.9452L85.7653 15.2ZM87.3253 18.76H88.3253V18.7509L88.3251 18.7418L87.3253 18.76ZM87.3253 31V32H88.3253V31H87.3253ZM83.5653 31H82.5653V32H83.5653V31ZM83.5653 20.08H84.5653V20.0653L84.5649 20.0506L83.5653 20.08ZM82.7653 17.88L81.9914 18.5132L82.0071 18.5325L82.0238 18.5509L82.7653 17.88ZM76.0453 20L75.1458 19.5631L75.1407 19.5736L75.1358 19.5842L76.0453 20ZM75.4053 31V32H76.4053V31H75.4053ZM71.6853 31H70.6853V32H71.6853V31ZM71.6853 14.44V13.44H70.6853V14.44H71.6853ZM74.0084 14.519L74.3284 18.559L76.3222 18.401L76.0022 14.361L74.0084 14.519ZM76.2955 18.2375L76.1355 17.5975L74.1952 18.0825L74.3552 18.7225L76.2955 18.2375ZM76.0824 18.2387C76.5286 17.2124 77.2497 16.3955 78.2798 15.7775L77.2508 14.0625C75.8809 14.8845 74.8687 16.0143 74.2482 17.4413L76.0824 18.2387ZM78.2936 15.7691C79.3175 15.132 80.5169 14.8 81.9253 14.8V12.8C80.187 12.8 78.6131 13.2147 77.237 14.0709L78.2936 15.7691ZM81.9253 14.8C83.2865 14.8 84.3065 15.1965 85.0781 15.9265L86.4525 14.4735C85.2508 13.3368 83.7108 12.8 81.9253 12.8V14.8ZM85.0985 15.9452C85.887 16.6507 86.3034 17.5651 86.3255 18.7782L88.3251 18.7418C88.2939 17.0215 87.6703 15.5626 86.4321 14.4548L85.0985 15.9452ZM86.3253 18.76V31H88.3253V18.76H86.3253ZM87.3253 30H83.5653V32H87.3253V30ZM84.5653 31V20.08H82.5653V31H84.5653ZM84.5649 20.0506C84.5327 18.9562 84.2037 17.9793 83.5068 17.2091L82.0238 18.5509C82.3403 18.9007 82.5446 19.3905 82.5657 20.1094L84.5649 20.0506ZM83.5393 17.2468C82.8055 16.35 81.7073 16 80.4853 16V18C81.3433 18 81.7651 18.2367 81.9914 18.5132L83.5393 17.2468ZM80.4853 16C79.3273 16 78.2617 16.3257 77.3176 16.9768L78.453 18.6232C79.0556 18.2077 79.7234 18 80.4853 18V16ZM77.3176 16.9768C76.3877 17.6181 75.6665 18.4911 75.1458 19.5631L76.9448 20.4369C77.3308 19.6422 77.8363 19.0486 78.453 18.6232L77.3176 16.9768ZM75.1358 19.5842C74.639 20.671 74.4053 21.8975 74.4053 23.24H76.4053C76.4053 22.1292 76.5983 21.1956 76.9548 20.4158L75.1358 19.5842ZM74.4053 23.24V31H76.4053V23.24H74.4053ZM75.4053 30H71.6853V32H75.4053V30ZM72.6853 31V14.44H70.6853V31H72.6853ZM71.6853 15.44H75.0053V13.44H71.6853V15.44ZM93.5147 18.08L92.6572 17.5655L92.6534 17.5719L92.6497 17.5783L93.5147 18.08ZM96.7947 14.92L97.2818 15.7934L97.2818 15.7934L96.7947 14.92ZM106.275 14.92L105.78 15.7893L105.78 15.7893L106.275 14.92ZM109.435 18.08L110.307 17.5914L110.307 17.5914L109.435 18.08ZM109.435 27.08L110.307 27.5686L110.311 27.5613L109.435 27.08ZM106.235 30.24L105.748 29.3666L105.74 29.3707L106.235 30.24ZM96.7547 30.32L96.2734 31.1966L96.2836 31.2022L96.2939 31.2075L96.7547 30.32ZM93.5147 27.24L92.6497 27.7417L92.6556 27.752L92.6618 27.7622L93.5147 27.24ZM96.7947 25.52L95.9167 25.9989L95.9231 26.0103L96.7947 25.52ZM98.7147 27.56L98.1796 28.4048L98.1859 28.4088L98.1921 28.4126L98.7147 27.56ZM104.195 27.56L103.672 26.7074L103.666 26.7112L103.66 26.7152L104.195 27.56ZM106.115 25.52L106.998 25.9892L107.004 25.978L106.115 25.52ZM106.115 19.72L105.226 20.178L105.232 20.1892L106.115 19.72ZM104.195 17.64L103.64 18.472L103.656 18.4826L103.672 18.4926L104.195 17.64ZM98.6747 17.64L98.1326 16.7997L98.1262 16.8038L98.12 16.8079L98.6747 17.64ZM96.7547 19.76L95.8767 19.2811L95.8716 19.2908L96.7547 19.76ZM93.3547 22.56C93.3547 21.0696 93.7012 19.7516 94.3797 18.5817L92.6497 17.5783C91.7815 19.0751 91.3547 20.7437 91.3547 22.56H93.3547ZM94.3722 18.5945C95.0802 17.4144 96.0444 16.4834 97.2818 15.7934L96.3076 14.0466C94.7716 14.9033 93.5491 16.0789 92.6572 17.5655L94.3722 18.5945ZM97.2818 15.7934C98.5038 15.1118 99.9063 14.76 101.515 14.76V12.76C99.6031 12.76 97.8589 13.1815 96.3076 14.0466L97.2818 15.7934ZM101.515 14.76C103.183 14.76 104.594 15.1144 105.78 15.7893L106.769 14.0507C105.236 13.1789 103.473 12.76 101.515 12.76V14.76ZM105.78 15.7893C106.986 16.4748 107.907 17.3982 108.562 18.5686L110.307 17.5914C109.469 16.0952 108.283 14.9119 106.769 14.0507L105.78 15.7893ZM108.562 18.5686C109.218 19.7406 109.555 21.0633 109.555 22.56H111.555C111.555 20.75 111.144 19.0861 110.307 17.5914L108.562 18.5686ZM109.555 22.56C109.555 24.0565 109.218 25.3959 108.558 26.5987L110.311 27.5613C111.144 26.0441 111.555 24.3702 111.555 22.56H109.555ZM108.562 26.5914C107.91 27.7568 106.979 28.6797 105.748 29.3666L106.722 31.1134C108.263 30.2536 109.466 29.0699 110.307 27.5686L108.562 26.5914ZM105.74 29.3707C104.554 30.0456 103.143 30.4 101.475 30.4V32.4C103.433 32.4 105.196 31.9811 106.729 31.1093L105.74 29.3707ZM101.475 30.4C99.8546 30.4 98.4427 30.0697 97.2155 29.4325L96.2939 31.2075C97.8401 32.0103 99.5748 32.4 101.475 32.4V30.4ZM97.2359 29.4434C96.0265 28.7794 95.0754 27.8741 94.3675 26.7178L92.6618 27.7622C93.5539 29.2193 94.7628 30.3672 96.2734 31.1966L97.2359 29.4434ZM94.3797 26.7383C93.708 25.5802 93.3547 24.1988 93.3547 22.56H91.3547C91.3547 24.4945 91.7747 26.2332 92.6497 27.7417L94.3797 26.7383ZM95.0747 22.6C95.0747 23.8229 95.3515 24.9625 95.9168 25.9989L97.6726 25.0411C97.2778 24.3175 97.0747 23.5104 97.0747 22.6H95.0747ZM95.9231 26.0103C96.4814 27.0027 97.235 27.8066 98.1796 28.4048L99.2497 26.7152C98.5944 26.3001 98.068 25.7439 97.6663 25.0297L95.9231 26.0103ZM98.1921 28.4126C99.1789 29.0174 100.267 29.32 101.435 29.32V27.32C100.629 27.32 99.9038 27.1159 99.2372 26.7074L98.1921 28.4126ZM101.435 29.32C102.645 29.32 103.754 29.0227 104.73 28.4048L103.66 26.7152C103.035 27.1106 102.305 27.32 101.435 27.32V29.32ZM104.717 28.4126C105.696 27.8129 106.46 27.0008 106.998 25.9892L105.232 25.0508C104.862 25.7459 104.347 26.2937 103.672 26.7074L104.717 28.4126ZM107.004 25.978C107.536 24.9455 107.795 23.8133 107.795 22.6H105.795C105.795 23.52 105.601 24.3345 105.226 25.062L107.004 25.978ZM107.795 22.6C107.795 21.3871 107.536 20.2632 106.998 19.2508L105.232 20.1892C105.6 20.8835 105.795 21.6796 105.795 22.6H107.795ZM107.004 19.262C106.468 18.2231 105.703 17.3917 104.717 16.7874L103.672 18.4926C104.339 18.9016 104.854 19.4569 105.226 20.178L107.004 19.262ZM104.749 16.8079C103.772 16.1561 102.655 15.84 101.435 15.84V17.84C102.294 17.84 103.018 18.0572 103.64 18.472L104.749 16.8079ZM101.435 15.84C100.235 15.84 99.1259 16.1589 98.1326 16.7997L99.2168 18.4803C99.8768 18.0545 100.608 17.84 101.435 17.84V15.84ZM98.12 16.8079C97.1794 17.435 96.4309 18.2652 95.8768 19.2811L97.6326 20.2389C98.0385 19.4948 98.5699 18.9117 99.2294 18.472L98.12 16.8079ZM95.8716 19.2908C95.3357 20.2996 95.0747 21.4092 95.0747 22.6H97.0747C97.0747 21.7108 97.267 20.9271 97.6378 20.2292L95.8716 19.2908ZM125.684 14.44L126.6 14.0394L126.338 13.44H125.684V14.44ZM130.564 25.6L130.674 26.5939L132.024 26.4439L131.48 25.1994L130.564 25.6ZM129.844 25.68L128.917 25.3041L128.286 26.8592L129.954 26.6739L129.844 25.68ZM134.404 14.44V13.44H133.73L133.477 14.0641L134.404 14.44ZM138.044 14.44L138.961 14.8372L139.566 13.44H138.044V14.44ZM130.444 32L129.538 32.4241L130.48 34.4346L131.361 32.3972L130.444 32ZM125.124 20.64L126.029 20.2159L125.081 18.19L124.204 20.248L125.124 20.64ZM120.284 32L119.368 32.4007L120.296 34.5231L121.204 32.392L120.284 32ZM112.604 14.44V13.44H111.075L111.688 14.8407L112.604 14.44ZM116.244 14.44L117.158 14.0359L116.895 13.44H116.244V14.44ZM121.404 26.12L121.219 27.1029L123.086 27.4528L122.318 25.7159L121.404 26.12ZM120.124 25.88L119.205 25.485L118.712 26.6327L119.939 26.8629L120.124 25.88ZM123.804 17.32L124.722 17.715L124.898 17.307L124.713 16.9033L123.804 17.32ZM122.484 14.44V13.44H120.925L121.575 14.8567L122.484 14.44ZM124.768 14.8406L129.648 26.0006L131.48 25.1994L126.6 14.0394L124.768 14.8406ZM130.453 24.6061L129.733 24.6861L129.954 26.6739L130.674 26.5939L130.453 24.6061ZM130.77 26.0559L135.33 14.8159L133.477 14.0641L128.917 25.3041L130.77 26.0559ZM134.404 15.44H138.044V13.44H134.404V15.44ZM137.126 14.0428L129.526 31.6028L131.361 32.3972L138.961 14.8372L137.126 14.0428ZM131.349 31.5759L126.029 20.2159L124.218 21.0641L129.538 32.4241L131.349 31.5759ZM124.204 20.248L119.364 31.608L121.204 32.392L126.044 21.032L124.204 20.248ZM121.2 31.5993L113.52 14.0393L111.688 14.8407L119.368 32.4007L121.2 31.5993ZM112.604 15.44H116.244V13.44H112.604V15.44ZM115.329 14.8441L120.489 26.5241L122.318 25.7159L117.158 14.0359L115.329 14.8441ZM121.588 25.1371L120.308 24.8971L119.939 26.8629L121.219 27.1029L121.588 25.1371ZM121.042 26.275L124.722 17.715L122.885 16.925L119.205 25.485L121.042 26.275ZM124.713 16.9033L123.393 14.0233L121.575 14.8567L122.895 17.7367L124.713 16.9033ZM122.484 15.44H125.684V13.44H122.484V15.44ZM145.357 14.44L146.354 14.361L146.281 13.44H145.357V14.44ZM145.677 18.48L144.707 18.7225L146.674 18.401L145.677 18.48ZM145.517 17.84L144.6 17.4413L144.464 17.7529L144.547 18.0825L145.517 17.84ZM148.117 14.92L148.631 15.7775L148.638 15.7733L148.645 15.7691L148.117 14.92ZM156.117 15.2L155.43 15.9265L155.44 15.936L155.45 15.9452L156.117 15.2ZM157.677 18.76H158.677V18.7509L158.677 18.7418L157.677 18.76ZM157.677 31V32H158.677V31H157.677ZM153.917 31H152.917V32H153.917V31ZM153.917 20.08H154.917V20.0653L154.916 20.0506L153.917 20.08ZM153.117 17.88L152.343 18.5132L152.359 18.5325L152.375 18.5509L153.117 17.88ZM146.397 20L145.497 19.5631L145.492 19.5736L145.487 19.5842L146.397 20ZM145.757 31V32H146.757V31H145.757ZM142.037 31H141.037V32H142.037V31ZM142.037 14.44V13.44H141.037V14.44H142.037ZM144.36 14.519L144.68 18.559L146.674 18.401L146.354 14.361L144.36 14.519ZM146.647 18.2375L146.487 17.5975L144.547 18.0825L144.707 18.7225L146.647 18.2375ZM146.434 18.2387C146.88 17.2124 147.601 16.3955 148.631 15.7775L147.602 14.0625C146.232 14.8845 145.22 16.0143 144.6 17.4413L146.434 18.2387ZM148.645 15.7691C149.669 15.132 150.868 14.8 152.277 14.8V12.8C150.539 12.8 148.965 13.2147 147.589 14.0709L148.645 15.7691ZM152.277 14.8C153.638 14.8 154.658 15.1965 155.43 15.9265L156.804 14.4735C155.602 13.3368 154.062 12.8 152.277 12.8V14.8ZM155.45 15.9452C156.239 16.6507 156.655 17.5651 156.677 18.7782L158.677 18.7418C158.645 17.0215 158.022 15.5626 156.784 14.4548L155.45 15.9452ZM156.677 18.76V31H158.677V18.76H156.677ZM157.677 30H153.917V32H157.677V30ZM154.917 31V20.08H152.917V31H154.917ZM154.916 20.0506C154.884 18.9562 154.555 17.9793 153.858 17.2091L152.375 18.5509C152.692 18.9007 152.896 19.3905 152.917 20.1094L154.916 20.0506ZM153.891 17.2468C153.157 16.35 152.059 16 150.837 16V18C151.695 18 152.117 18.2367 152.343 18.5132L153.891 17.2468ZM150.837 16C149.679 16 148.613 16.3257 147.669 16.9768L148.805 18.6232C149.407 18.2077 150.075 18 150.837 18V16ZM147.669 16.9768C146.739 17.6181 146.018 18.4911 145.497 19.5631L147.296 20.4369C147.682 19.6422 148.188 19.0486 148.805 18.6232L147.669 16.9768ZM145.487 19.5842C144.991 20.671 144.757 21.8975 144.757 23.24H146.757C146.757 22.1292 146.95 21.1956 147.306 20.4158L145.487 19.5842ZM144.757 23.24V31H146.757V23.24H144.757ZM145.757 30H142.037V32H145.757V30ZM143.037 31V14.44H141.037V31H143.037ZM142.037 15.44H145.357V13.44H142.037V15.44ZM174.843 31L173.92 30.613L173.338 32H174.843V31ZM187.483 0.879999V-0.120001H186.818L186.56 0.493037L187.483 0.879999ZM187.723 0.879999L188.645 0.494079L188.388 -0.120001H187.723V0.879999ZM200.323 31V32H201.825L201.245 30.6141L200.323 31ZM195.883 31L194.952 31.3655L195.201 32H195.883V31ZM186.443 6.96L185.896 6.12239L185.214 6.56734L185.512 7.32551L186.443 6.96ZM189.203 5.16L190.128 5.5383L191.341 2.57177L188.656 4.32239L189.203 5.16ZM178.643 31V32H179.314L179.568 31.3783L178.643 31ZM182.243 20.04V19.04H181.522L181.294 19.7238L182.243 20.04ZM193.003 20.04L193.937 19.684L193.692 19.04H193.003V20.04ZM194.283 23.4V24.4H195.734L195.217 23.044L194.283 23.4ZM181.123 23.4L180.174 23.0838L179.735 24.4H181.123V23.4ZM175.765 31.387L188.405 1.26696L186.56 0.493037L173.92 30.613L175.765 31.387ZM187.483 1.88H187.723V-0.120001H187.483V1.88ZM186.8 1.26592L199.4 31.3859L201.245 30.6141L188.645 0.494079L186.8 1.26592ZM200.323 30H195.883V32H200.323V30ZM196.813 30.6345L187.373 6.59449L185.512 7.32551L194.952 31.3655L196.813 30.6345ZM186.989 7.79761L189.749 5.99761L188.656 4.32239L185.896 6.12239L186.989 7.79761ZM188.277 4.7817L177.717 30.6217L179.568 31.3783L190.128 5.5383L188.277 4.7817ZM178.643 30H174.843V32H178.643V30ZM182.243 21.04H193.003V19.04H182.243V21.04ZM192.068 20.396L193.348 23.756L195.217 23.044L193.937 19.684L192.068 20.396ZM194.283 22.4H181.123V24.4H194.283V22.4ZM182.071 23.7162L183.191 20.3562L181.294 19.7238L180.174 23.0838L182.071 23.7162ZM208.169 14.44L209.167 14.3652L209.097 13.44H208.169V14.44ZM208.529 19.24L207.575 19.5383L209.527 19.1652L208.529 19.24ZM208.329 18.6L207.408 18.2119L207.266 18.5491L207.375 18.8983L208.329 18.6ZM210.169 16.04L210.824 16.7957L210.826 16.7941L210.169 16.04ZM212.729 14.4L213.12 15.3206L213.126 15.3178L213.133 15.3149L212.729 14.4ZM215.089 13.8L216.088 13.8543L216.145 12.8H215.089V13.8ZM214.889 17.48L214.826 18.478L215.833 18.5423L215.888 17.5343L214.889 17.48ZM211.569 18.2L211.065 17.3362L211.055 17.3425L211.569 18.2ZM209.329 20.44L208.472 19.9255L208.466 19.9346L208.461 19.9439L209.329 20.44ZM208.529 31V32H209.529V31H208.529ZM204.849 31H203.849V32H204.849V31ZM204.849 14.44V13.44H203.849V14.44H204.849ZM207.172 14.5148L207.532 19.3148L209.527 19.1652L209.167 14.3652L207.172 14.5148ZM209.484 18.9417L209.284 18.3017L207.375 18.8983L207.575 19.5383L209.484 18.9417ZM209.251 18.9881C209.621 18.1105 210.145 17.3846 210.824 16.7957L209.514 15.2843C208.594 16.082 207.892 17.0629 207.408 18.2119L209.251 18.9881ZM210.826 16.7941C211.585 16.1333 212.35 15.6472 213.12 15.3206L212.339 13.4794C211.349 13.8994 210.407 14.5067 209.513 15.2859L210.826 16.7941ZM213.133 15.3149C213.969 14.9461 214.612 14.8 215.089 14.8V12.8C214.233 12.8 213.303 13.0539 212.326 13.4851L213.133 15.3149ZM214.091 13.7457L213.891 17.4257L215.888 17.5343L216.088 13.8543L214.091 13.7457ZM214.953 16.482C213.528 16.3911 212.219 16.6634 211.066 17.3362L212.073 19.0638C212.84 18.6166 213.744 18.4089 214.826 18.478L214.953 16.482ZM211.055 17.3425C209.981 17.987 209.116 18.8514 208.472 19.9255L210.187 20.9545C210.662 20.1619 211.291 19.533 212.084 19.0575L211.055 17.3425ZM208.461 19.9439C207.842 21.0271 207.529 22.1979 207.529 23.44H209.529C209.529 22.5488 209.75 21.7196 210.198 20.9361L208.461 19.9439ZM207.529 23.44V31H209.529V23.44H207.529ZM208.529 30H204.849V32H208.529V30ZM205.849 31V14.44H203.849V31H205.849ZM204.849 15.44H208.169V13.44H204.849V15.44ZM221.488 7.16V6.16H220.488V7.16H221.488ZM225.208 7.16H226.208V6.16H225.208V7.16ZM225.208 14.52H224.208V15.52H225.208V14.52ZM229.768 14.52H230.768V13.52H229.768V14.52ZM229.768 17.44V18.44H230.768V17.44H229.768ZM225.208 17.44V16.44H224.208V17.44H225.208ZM225.208 31V32H226.208V31H225.208ZM221.488 31H220.488V32H221.488V31ZM221.488 17.44H222.488V16.44H221.488V17.44ZM218.448 17.44H217.448V18.44H218.448V17.44ZM218.448 14.52V13.52H217.448V14.52H218.448ZM221.488 14.52V15.52H222.488V14.52H221.488ZM221.488 8.16H225.208V6.16H221.488V8.16ZM224.208 7.16V14.52H226.208V7.16H224.208ZM225.208 15.52H229.768V13.52H225.208V15.52ZM228.768 14.52V17.44H230.768V14.52H228.768ZM229.768 16.44H225.208V18.44H229.768V16.44ZM224.208 17.44V31H226.208V17.44H224.208ZM225.208 30H221.488V32H225.208V30ZM222.488 31V17.44H220.488V31H222.488ZM221.488 16.44H218.448V18.44H221.488V16.44ZM219.448 17.44V14.52H217.448V17.44H219.448ZM218.448 15.52H221.488V13.52H218.448V15.52ZM222.488 14.52V7.16H220.488V14.52H222.488ZM234.263 14.44V13.44H233.263V14.44H234.263ZM237.983 14.44H238.983V13.44H237.983V14.44ZM237.983 31V32H238.983V31H237.983ZM234.263 31H233.263V32H234.263V31ZM234.663 6.96L234.023 6.19178L234.012 6.20082L234.002 6.21016L234.663 6.96ZM237.703 6.96L237.019 7.68954L237.031 7.69986L237.042 7.70984L237.703 6.96ZM237.703 9.96L238.362 10.7126L238.365 10.7098L237.703 9.96ZM234.663 9.92L234.002 10.6698L234.012 10.6792L234.023 10.6882L234.663 9.92ZM234.263 15.44H237.983V13.44H234.263V15.44ZM236.983 14.44V31H238.983V14.44H236.983ZM237.983 30H234.263V32H237.983V30ZM235.263 31V14.44H233.263V31H235.263ZM234.983 8.44C234.983 8.1501 235.079 7.92662 235.325 7.70984L234.002 6.21016C233.341 6.79338 232.983 7.55657 232.983 8.44H234.983ZM235.304 7.72822C235.626 7.45951 235.925 7.36 236.223 7.36V5.36C235.402 5.36 234.661 5.66048 234.023 6.19178L235.304 7.72822ZM236.223 7.36C236.517 7.36 236.769 7.45479 237.019 7.68954L238.387 6.23046C237.784 5.66521 237.05 5.36 236.223 5.36V7.36ZM237.042 7.70984C237.288 7.92662 237.383 8.1501 237.383 8.44H239.383C239.383 7.55657 239.026 6.79338 238.365 6.21016L237.042 7.70984ZM237.383 8.44C237.383 8.77118 237.276 9.00312 237.042 9.21016L238.365 10.7098C239.037 10.1169 239.383 9.33548 239.383 8.44H237.383ZM237.045 9.20742C236.798 9.42343 236.538 9.52 236.223 9.52V11.52C237.029 11.52 237.755 11.2432 238.362 10.7126L237.045 9.20742ZM236.223 9.52C235.925 9.52 235.626 9.42048 235.304 9.15178L234.023 10.6882C234.661 11.2195 235.402 11.52 236.223 11.52V9.52ZM235.325 9.17016C235.079 8.95337 234.983 8.7299 234.983 8.44H232.983C232.983 9.32343 233.341 10.0866 234.002 10.6698L235.325 9.17016ZM245.62 30.72L245.256 31.6516L245.27 31.6569L245.283 31.6617L245.62 30.72ZM242.9 28.84L242.089 28.2545L241.624 28.8981L242.146 29.4968L242.9 28.84ZM244.46 26.68L245.153 25.9592L244.323 25.1613L243.649 26.0945L244.46 26.68ZM246.58 28.2L246.146 29.101L246.166 29.1105L246.186 29.1191L246.58 28.2ZM250.26 28.48L250.542 29.4394L250.542 29.4394L250.26 28.48ZM251.34 27.84L250.603 27.1643L250.6 27.1673L251.34 27.84ZM251.18 25.16L250.499 25.8928L250.512 25.9045L250.525 25.9157L251.18 25.16ZM249.7 24.32L249.358 25.2599L249.371 25.2645L249.7 24.32ZM247.82 23.72L247.503 24.6687L247.527 24.6764L247.55 24.683L247.82 23.72ZM244.7 21.84L245.443 21.171L245.443 21.171L244.7 21.84ZM244.26 16.48L243.397 15.9742L243.391 15.9839L244.26 16.48ZM246.22 14.6L245.741 13.722L245.729 13.7284L246.22 14.6ZM252.54 14.32L252.232 15.2714L252.245 15.2756L252.258 15.2794L252.54 14.32ZM255.1 15.68L255.943 16.2178L256.426 15.4604L255.724 14.8991L255.1 15.68ZM253.62 18L252.894 18.6877L253.774 19.6171L254.463 18.5378L253.62 18ZM251.9 16.88L251.561 17.8209L251.561 17.8209L251.9 16.88ZM250.1 16.48L250.041 17.4783L250.05 17.4788L250.1 16.48ZM248.78 16.68L248.429 15.7437L248.418 15.7475L248.408 15.7515L248.78 16.68ZM247.94 19.76L248.62 19.0272L248.62 19.0272L247.94 19.76ZM249.38 20.6L249.038 21.5398L249.063 21.5489L249.089 21.5567L249.38 20.6ZM251.18 21.2L250.838 22.1398L250.869 22.1511L250.901 22.1603L251.18 21.2ZM253.38 22.16L252.85 23.008L252.85 23.008L253.38 22.16ZM254.9 23.64L254.056 24.1769L254.065 24.1902L254.073 24.2033L254.9 23.64ZM254.78 28.6L253.908 28.1097L253.903 28.1192L254.78 28.6ZM252.66 30.6L253.117 31.4893L253.126 31.4844L252.66 30.6ZM249.06 30.32C248.003 30.32 246.97 30.1402 245.956 29.7783L245.283 31.6617C246.51 32.0998 247.77 32.32 249.06 32.32V30.32ZM245.983 29.7884C245.029 29.4162 244.26 28.8796 243.654 28.1832L242.146 29.4968C242.979 30.4538 244.023 31.1704 245.256 31.6516L245.983 29.7884ZM243.71 29.4255L245.27 27.2655L243.649 26.0945L242.089 28.2545L243.71 29.4255ZM243.767 27.4008C244.521 28.1264 245.313 28.7001 246.146 29.101L247.014 27.299C246.406 27.0065 245.785 26.5669 245.153 25.9592L243.767 27.4008ZM246.186 29.1191C247.041 29.4857 247.908 29.68 248.78 29.68V27.68C248.211 27.68 247.612 27.5543 246.974 27.2809L246.186 29.1191ZM248.78 29.68C249.396 29.68 249.986 29.6029 250.542 29.4394L249.978 27.5206C249.627 27.6238 249.23 27.68 248.78 27.68V29.68ZM250.542 29.4394C251.137 29.2643 251.668 28.9658 252.08 28.5127L250.6 27.1673C250.478 27.3009 250.289 27.429 249.978 27.5206L250.542 29.4394ZM252.077 28.5157C252.576 27.9714 252.78 27.2836 252.78 26.56H250.78C250.78 26.9031 250.69 27.0686 250.603 27.1643L252.077 28.5157ZM252.78 26.56C252.78 25.7186 252.479 24.9629 251.835 24.4043L250.525 25.9157C250.68 26.0505 250.78 26.2281 250.78 26.56H252.78ZM251.86 24.4272C251.362 23.9643 250.738 23.6223 250.028 23.3755L249.371 25.2645C249.888 25.4444 250.251 25.6623 250.499 25.8928L251.86 24.4272ZM250.041 23.3802C249.429 23.1574 248.778 22.9498 248.089 22.757L247.55 24.683C248.195 24.8635 248.797 25.056 249.358 25.2598L250.041 23.3802ZM248.136 22.7713C246.887 22.3552 246.015 21.8067 245.443 21.171L243.956 22.509C244.824 23.4733 246.032 24.1782 247.503 24.6687L248.136 22.7713ZM245.443 21.171C244.9 20.5674 244.62 19.8372 244.62 18.92H242.62C242.62 20.2961 243.06 21.5126 243.956 22.509L245.443 21.171ZM244.62 18.92C244.62 18.2098 244.79 17.5681 245.128 16.9761L243.391 15.9839C242.876 16.8853 242.62 17.8702 242.62 18.92H244.62ZM245.122 16.9857C245.478 16.3791 245.996 15.873 246.71 15.4716L245.729 13.7284C244.736 14.287 243.948 15.0343 243.397 15.9743L245.122 16.9857ZM246.699 15.4779C247.396 15.0972 248.302 14.88 249.46 14.88V12.88C248.058 12.88 246.803 13.1428 245.741 13.7221L246.699 15.4779ZM249.46 14.88C250.522 14.88 251.442 15.016 252.232 15.2714L252.848 13.3686C251.824 13.0373 250.69 12.88 249.46 12.88V14.88ZM252.258 15.2794C253.029 15.5064 253.768 15.8952 254.475 16.4609L255.724 14.8991C254.831 14.1848 253.863 13.667 252.822 13.3606L252.258 15.2794ZM254.257 15.1422L252.777 17.4622L254.463 18.5378L255.943 16.2178L254.257 15.1422ZM254.346 17.3123C253.756 16.6903 253.05 16.2312 252.238 15.9391L251.561 17.8209C252.083 18.0088 252.523 18.2963 252.894 18.6877L254.346 17.3123ZM252.238 15.9391C251.507 15.6759 250.808 15.5142 250.15 15.4812L250.05 17.4788C250.458 17.4992 250.959 17.6041 251.561 17.8209L252.238 15.9391ZM250.158 15.4817C249.565 15.4468 248.986 15.5348 248.429 15.7437L249.131 17.6163C249.427 17.5052 249.728 17.4598 250.041 17.4783L250.158 15.4817ZM248.408 15.7515C247.88 15.9628 247.417 16.2724 247.04 16.6873L248.52 18.0327C248.676 17.8609 248.879 17.7172 249.151 17.6085L248.408 15.7515ZM247.04 16.6873C246.604 17.1666 246.38 17.7537 246.38 18.4H248.38C248.38 18.2463 248.422 18.1401 248.52 18.0327L247.04 16.6873ZM246.38 18.4C246.38 19.2074 246.661 19.937 247.259 20.4928L248.62 19.0272C248.472 18.8897 248.38 18.7126 248.38 18.4H246.38ZM247.259 20.4928C247.75 20.9484 248.353 21.2908 249.038 21.5398L249.721 19.6602C249.233 19.4825 248.876 19.2649 248.62 19.0272L247.259 20.4928ZM249.089 21.5567C249.685 21.7383 250.268 21.9327 250.838 22.1398L251.521 20.2602C250.918 20.0406 250.301 19.835 249.671 19.6433L249.089 21.5567ZM250.901 22.1603C251.651 22.3782 252.298 22.6631 252.85 23.008L253.91 21.312C253.181 20.8569 252.361 20.5018 251.458 20.2397L250.901 22.1603ZM252.85 23.008C253.374 23.3358 253.769 23.7265 254.056 24.1769L255.743 23.1031C255.283 22.3802 254.665 21.7842 253.91 21.312L252.85 23.008ZM254.073 24.2033C254.336 24.588 254.5 25.1125 254.5 25.84H256.5C256.5 24.8075 256.264 23.8653 255.726 23.0767L254.073 24.2033ZM254.5 25.84C254.5 26.6563 254.303 27.4073 253.908 28.1097L255.651 29.0903C256.216 28.086 256.5 26.997 256.5 25.84H254.5ZM253.903 28.1192C253.557 28.7492 253.007 29.2862 252.193 29.7156L253.126 31.4844C254.233 30.9005 255.095 30.1042 255.657 29.0808L253.903 28.1192ZM252.202 29.7107C251.455 30.0949 250.427 30.32 249.06 30.32V32.32C250.626 32.32 251.997 32.0651 253.117 31.4893L252.202 29.7107ZM262.309 7.16V6.16H261.309V7.16H262.309ZM266.029 7.16H267.029V6.16H266.029V7.16ZM266.029 14.52H265.029V15.52H266.029V14.52ZM270.589 14.52H271.589V13.52H270.589V14.52ZM270.589 17.44V18.44H271.589V17.44H270.589ZM266.029 17.44V16.44H265.029V17.44H266.029ZM266.029 31V32H267.029V31H266.029ZM262.309 31H261.309V32H262.309V31ZM262.309 17.44H263.309V16.44H262.309V17.44ZM259.269 17.44H258.269V18.44H259.269V17.44ZM259.269 14.52V13.52H258.269V14.52H259.269ZM262.309 14.52V15.52H263.309V14.52H262.309ZM262.309 8.16H266.029V6.16H262.309V8.16ZM265.029 7.16V14.52H267.029V7.16H265.029ZM266.029 15.52H270.589V13.52H266.029V15.52ZM269.589 14.52V17.44H271.589V14.52H269.589ZM270.589 16.44H266.029V18.44H270.589V16.44ZM265.029 17.44V31H267.029V17.44H265.029ZM266.029 30H262.309V32H266.029V30ZM263.309 31V17.44H261.309V31H263.309ZM262.309 16.44H259.269V18.44H262.309V16.44ZM260.269 17.44V14.52H258.269V17.44H260.269ZM259.269 15.52H262.309V13.52H259.269V15.52ZM263.309 14.52V7.16H261.309V14.52H263.309Z" fill="url(#paint2_linear_202_2)"/>
<defs>
<filter id="filter0_i_202_2" x="0.956238" y="0.039978" width="269.633" height="35.96" filterUnits="userSpaceOnUse" color-interpolation-filters="sRGB">
<feFlood flood-opacity="0" result="BackgroundImageFix"/>
<feBlend mode="normal" in="SourceGraphic" in2="BackgroundImageFix" result="shape"/>
<feColorMatrix in="SourceAlpha" type="matrix" values="0 0 0 0 0 0 0 0 0 0 0 0 0 0 0 0 0 0 127 0" result="hardAlpha"/>
<feOffset dy="4"/>
<feGaussianBlur stdDeviation="2"/>
<feComposite in2="hardAlpha" operator="arithmetic" k2="-1" k3="1"/>
<feColorMatrix type="matrix" values="0 0 0 0 0 0 0 0 0 0 0 0 0 0 0 0 0 0 0.25 0"/>
<feBlend mode="normal" in2="shape" result="effect1_innerShadow_202_2"/>
</filter>
<linearGradient id="paint0_linear_202_2" x1="134.5" y1="1" x2="134" y2="37.5" gradientUnits="userSpaceOnUse">
<stop stop-color="#F7111F" stop-opacity="0.81"/>
<stop offset="1" stop-color="#882721" stop-opacity="0"/>
</linearGradient>
<linearGradient id="paint1_linear_202_2" x1="132" y1="81" x2="131.5" y2="3.99999" gradientUnits="userSpaceOnUse">
<stop stop-color="#D6F22B"/>
<stop offset="0.375451" stop-color="#CB8F1A" stop-opacity="0.83"/>
<stop offset="0.547081" stop-color="#D6F22B" stop-opacity="0.617403"/>
<stop offset="1" stop-color="#D6F22B" stop-opacity="0"/>
</linearGradient>
<linearGradient id="paint2_linear_202_2" x1="134.5" y1="1" x2="134.5" y2="51" gradientUnits="userSpaceOnUse">
<stop stop-color="#474064" stop-opacity="0.81"/>
<stop offset="1" stop-color="white" stop-opacity="0"/>
</linearGradient>
</defs>
</svg>
