<svg width="96" height="12" viewBox="0 0 96 12" fill="none" xmlns="http://www.w3.org/2000/svg">
<g filter="url(#filter0_i_202_2)">
<path d="M2.10369 7.416C2.10369 7.87333 2.21102 8.284 2.42569 8.648C2.64969 9.00267 2.94369 9.28267 3.30769 9.488C3.67169 9.69333 4.08235 9.796 4.53969 9.796C5.01569 9.796 5.44035 9.69333 5.81369 9.488C6.18702 9.28267 6.48102 9.00267 6.69569 8.648C6.91035 8.284 7.01769 7.87333 7.01769 7.416V0.877999H8.34769V7.458C8.34769 8.19533 8.17502 8.83933 7.82969 9.39C7.49369 9.94067 7.03635 10.3653 6.45769 10.664C5.88835 10.9627 5.24902 11.112 4.53969 11.112C3.83035 11.112 3.19102 10.9627 2.62169 10.664C2.05235 10.3653 1.59969 9.94067 1.26369 9.39C0.927688 8.83933 0.759688 8.19533 0.759688 7.458V0.877999H2.10369V7.416ZM11.9659 5.204L12.0779 6.618L12.0219 6.394C12.2086 5.96467 12.5119 5.624 12.9319 5.372C13.3519 5.11067 13.8373 4.98 14.3879 4.98C14.9386 4.98 15.3866 5.14333 15.7319 5.47C16.0866 5.78733 16.2686 6.20267 16.2779 6.716V11H14.9619V7.178C14.9526 6.86067 14.8593 6.604 14.6819 6.408C14.5139 6.20267 14.2479 6.1 13.8839 6.1C13.5479 6.1 13.2446 6.19333 12.9739 6.38C12.7033 6.56667 12.4886 6.82333 12.3299 7.15C12.1806 7.47667 12.1059 7.85467 12.1059 8.284V11H10.8039V5.204H11.9659ZM18.5422 11V0.163999H19.8442V11H18.5422ZM21.2442 7.15L23.9042 11H22.3782L20.3762 7.878L21.2442 7.15ZM19.4382 9.152L19.3122 7.906L22.8262 5.078L23.6242 5.764L19.4382 9.152ZM26.6769 5.204L26.7889 6.618L26.7329 6.394C26.9195 5.96467 27.2229 5.624 27.6429 5.372C28.0629 5.11067 28.5482 4.98 29.0989 4.98C29.6495 4.98 30.0975 5.14333 30.4429 5.47C30.7975 5.78733 30.9795 6.20267 30.9889 6.716V11H29.6729V7.178C29.6635 6.86067 29.5702 6.604 29.3929 6.408C29.2249 6.20267 28.9589 6.1 28.5949 6.1C28.2589 6.1 27.9555 6.19333 27.6849 6.38C27.4142 6.56667 27.1995 6.82333 27.0409 7.15C26.8915 7.47667 26.8169 7.85467 26.8169 8.284V11H25.5149V5.204H26.6769ZM32.7491 8.046C32.7491 7.46733 32.8845 6.94467 33.1551 6.478C33.4351 6.01133 33.8178 5.64267 34.3031 5.372C34.7885 5.10133 35.3391 4.966 35.9551 4.966C36.5898 4.966 37.1451 5.10133 37.6211 5.372C38.0971 5.64267 38.4658 6.01133 38.7271 6.478C38.9885 6.94467 39.1191 7.46733 39.1191 8.046C39.1191 8.62467 38.9885 9.152 38.7271 9.628C38.4658 10.0947 38.0925 10.4633 37.6071 10.734C37.1311 11.0047 36.5758 11.14 35.9411 11.14C35.3251 11.14 34.7745 11.014 34.2891 10.762C33.8131 10.5007 33.4351 10.1413 33.1551 9.684C32.8845 9.21733 32.7491 8.67133 32.7491 8.046ZM34.0511 8.06C34.0511 8.43333 34.1351 8.774 34.3031 9.082C34.4711 9.38067 34.6951 9.61867 34.9751 9.796C35.2645 9.97333 35.5818 10.062 35.9271 10.062C36.2911 10.062 36.6131 9.97333 36.8931 9.796C37.1825 9.61867 37.4065 9.38067 37.5651 9.082C37.7238 8.774 37.8031 8.43333 37.8031 8.06C37.8031 7.68667 37.7238 7.35067 37.5651 7.052C37.4065 6.744 37.1825 6.50133 36.8931 6.324C36.6131 6.13733 36.2911 6.044 35.9271 6.044C35.5725 6.044 35.2505 6.13733 34.9611 6.324C34.6811 6.51067 34.4571 6.758 34.2891 7.066C34.1305 7.36467 34.0511 7.696 34.0511 8.06ZM44.4143 5.204L46.1223 9.11L45.8703 9.138L47.4663 5.204H48.7403L46.0803 11.35L44.2183 7.374L42.5243 11.35L39.8363 5.204H41.1103L42.9163 9.292L42.4683 9.208L43.7563 6.212L43.2943 5.204H44.4143ZM51.2999 5.204L51.4119 6.618L51.3559 6.394C51.5426 5.96467 51.8459 5.624 52.2659 5.372C52.6859 5.11067 53.1712 4.98 53.7219 4.98C54.2726 4.98 54.7206 5.14333 55.0659 5.47C55.4206 5.78733 55.6026 6.20267 55.6119 6.716V11H54.2959V7.178C54.2866 6.86067 54.1932 6.604 54.0159 6.408C53.8479 6.20267 53.5819 6.1 53.2179 6.1C52.8819 6.1 52.5786 6.19333 52.3079 6.38C52.0372 6.56667 51.8226 6.82333 51.6639 7.15C51.5146 7.47667 51.4399 7.85467 51.4399 8.284V11H50.1379V5.204H51.2999ZM61.6199 11L66.0439 0.458H66.1279L70.5379 11H68.9839L65.6799 2.586L66.6459 1.956L62.9499 11H61.6199ZM64.2099 7.164H67.9759L68.4239 8.34H63.8179L64.2099 7.164ZM73.2843 5.204L73.4103 6.884L73.3403 6.66C73.4896 6.30533 73.7043 6.00667 73.9843 5.764C74.2736 5.512 74.5723 5.32067 74.8803 5.19C75.1976 5.05 75.4729 4.98 75.7063 4.98L75.6363 6.268C75.1976 6.24 74.8103 6.324 74.4743 6.52C74.1476 6.716 73.8863 6.97733 73.6903 7.304C73.5036 7.63067 73.4103 7.98067 73.4103 8.354V11H72.1223V5.204H73.2843ZM77.946 2.656H79.248V5.232H80.844V6.254H79.248V11H77.946V6.254H76.882V5.232H77.946V2.656ZM82.4172 5.204H83.7192V11H82.4172V5.204ZM82.3192 3.104C82.3192 2.89867 82.3985 2.726 82.5572 2.586C82.7252 2.446 82.9072 2.376 83.1032 2.376C83.2992 2.376 83.4719 2.446 83.6212 2.586C83.7799 2.726 83.8592 2.89867 83.8592 3.104C83.8592 3.31867 83.7799 3.496 83.6212 3.636C83.4719 3.76667 83.2992 3.832 83.1032 3.832C82.9072 3.832 82.7252 3.762 82.5572 3.622C82.3985 3.482 82.3192 3.30933 82.3192 3.104ZM87.5959 11.112C87.1852 11.112 86.7839 11.042 86.3919 10.902C86.0092 10.7527 85.6919 10.5333 85.4399 10.244L85.9859 9.488C86.2286 9.72133 86.4759 9.89867 86.7279 10.02C86.9892 10.132 87.2459 10.188 87.4979 10.188C87.6846 10.188 87.8572 10.1647 88.0159 10.118C88.1746 10.0713 88.3006 9.99667 88.3939 9.894C88.4966 9.782 88.5479 9.63267 88.5479 9.446C88.5479 9.24067 88.4779 9.07733 88.3379 8.956C88.2072 8.83467 88.0346 8.73667 87.8199 8.662C87.6146 8.58733 87.3952 8.51733 87.1619 8.452C86.6859 8.29333 86.3219 8.074 86.0699 7.794C85.8179 7.514 85.6919 7.17333 85.6919 6.772C85.6919 6.464 85.7666 6.17933 85.9159 5.918C86.0746 5.64733 86.3032 5.428 86.6019 5.26C86.9099 5.092 87.2879 5.008 87.7359 5.008C88.1372 5.008 88.4966 5.05933 88.8139 5.162C89.1312 5.25533 89.4299 5.414 89.7099 5.638L89.1919 6.45C89.0239 6.27267 88.8232 6.142 88.5899 6.058C88.3566 5.974 88.1466 5.92733 87.9599 5.918C87.8012 5.90867 87.6472 5.932 87.4979 5.988C87.3579 6.044 87.2412 6.12333 87.1479 6.226C87.0546 6.32867 87.0079 6.45 87.0079 6.59C87.0079 6.786 87.0732 6.94467 87.2039 7.066C87.3346 7.18733 87.5026 7.28533 87.7079 7.36C87.9226 7.42533 88.1326 7.49533 88.3379 7.57C88.6272 7.654 88.8839 7.766 89.1079 7.906C89.3319 8.046 89.5092 8.21867 89.6399 8.424C89.7799 8.62933 89.8499 8.886 89.8499 9.194C89.8499 9.53933 89.7659 9.86133 89.5979 10.16C89.4392 10.4493 89.1919 10.6827 88.8559 10.86C88.5292 11.028 88.1092 11.112 87.5959 11.112ZM92.2331 2.656H93.5351V5.232H95.1311V6.254H93.5351V11H92.2331V6.254H91.1691V5.232H92.2331V2.656Z" fill="#D57D78"/>
</g>
<path d="M2.42569 8.648L1.56432 9.15598L1.57206 9.16911L1.5802 9.18199L2.42569 8.648ZM3.30769 9.488L2.81637 10.359L2.81637 10.359L3.30769 9.488ZM5.81369 9.488L6.29561 10.3642L6.29561 10.3642L5.81369 9.488ZM6.69569 8.648L7.55124 9.16584L7.55705 9.15598L6.69569 8.648ZM7.01769 0.877999V-0.122001H6.01769V0.877999H7.01769ZM8.34769 0.877999H9.34769V-0.122001H8.34769V0.877999ZM7.82969 9.39L6.98243 8.85867L6.97605 8.86914L7.82969 9.39ZM6.45769 10.664L5.99903 9.77536L5.99314 9.77845L6.45769 10.664ZM2.62169 10.664L3.08624 9.77845L3.08624 9.77845L2.62169 10.664ZM1.26369 9.39L2.11733 8.86914L2.11733 8.86914L1.26369 9.39ZM0.759688 0.877999V-0.122001H-0.240312V0.877999H0.759688ZM2.10369 0.877999H3.10369V-0.122001H2.10369V0.877999ZM1.10369 7.416C1.10369 8.03682 1.25148 8.62551 1.56432 9.15598L3.28705 8.14001C3.17057 7.94249 3.10369 7.70985 3.10369 7.416H1.10369ZM1.5802 9.18199C1.89221 9.67601 2.30769 10.072 2.81637 10.359L3.79901 8.61702C3.57969 8.4933 3.40716 8.32932 3.27118 8.11401L1.5802 9.18199ZM2.81637 10.359C3.34418 10.6567 3.92687 10.796 4.53969 10.796V8.796C4.23784 8.796 3.99919 8.72995 3.79901 8.61702L2.81637 10.359ZM4.53969 10.796C5.16408 10.796 5.75796 10.6599 6.29561 10.3642L5.33177 8.61178C5.12275 8.72674 4.86729 8.796 4.53969 8.796V10.796ZM6.29561 10.3642C6.8183 10.0767 7.24301 9.67496 7.55119 9.1658L5.84019 8.1302C5.71903 8.33037 5.55574 8.4886 5.33177 8.61178L6.29561 10.3642ZM7.55705 9.15598C7.8699 8.62551 8.01769 8.03682 8.01769 7.416H6.01769C6.01769 7.70985 5.95081 7.94249 5.83432 8.14001L7.55705 9.15598ZM8.01769 7.416V0.877999H6.01769V7.416H8.01769ZM7.01769 1.878H8.34769V-0.122001H7.01769V1.878ZM7.34769 0.877999V7.458H9.34769V0.877999H7.34769ZM7.34769 7.458C7.34769 8.0333 7.21506 8.48787 6.9825 8.85871L8.67688 9.92129C9.13499 9.19079 9.34769 8.35736 9.34769 7.458H7.34769ZM6.97605 8.86914C6.73647 9.26177 6.41646 9.55994 5.99904 9.77538L6.91633 11.5526C7.65625 11.1707 8.2509 10.6196 8.68333 9.91086L6.97605 8.86914ZM5.99314 9.77845C5.58147 9.99441 5.10422 10.112 4.53969 10.112V12.112C5.39383 12.112 6.19524 11.9309 6.92224 11.5495L5.99314 9.77845ZM4.53969 10.112C3.97516 10.112 3.49791 9.99441 3.08624 9.77845L2.15714 11.5495C2.88413 11.9309 3.68555 12.112 4.53969 12.112V10.112ZM3.08624 9.77845C2.67779 9.56418 2.35937 9.26581 2.11733 8.86914L0.410048 9.91086C0.840008 10.6155 1.42692 11.1665 2.15714 11.5495L3.08624 9.77845ZM2.11733 8.86914C1.89012 8.49677 1.75969 8.03839 1.75969 7.458H-0.240312C-0.240312 8.35227 -0.0347453 9.1819 0.410048 9.91086L2.11733 8.86914ZM1.75969 7.458V0.877999H-0.240312V7.458H1.75969ZM0.759688 1.878H2.10369V-0.122001H0.759688V1.878ZM1.10369 0.877999V7.416H3.10369V0.877999H1.10369ZM11.9659 5.204L12.9628 5.12504L12.8898 4.204H11.9659V5.204ZM12.0779 6.618L11.1078 6.86053L13.0748 6.53904L12.0779 6.618ZM12.0219 6.394L11.1049 5.99527L10.9694 6.30689L11.0518 6.63653L12.0219 6.394ZM12.9319 5.372L13.4464 6.22949L13.4534 6.22533L13.4602 6.22106L12.9319 5.372ZM15.7319 5.47L15.0447 6.19647L15.0548 6.206L15.0651 6.21524L15.7319 5.47ZM16.2779 6.716H17.2779V6.70691L17.2778 6.69782L16.2779 6.716ZM16.2779 11V12H17.2779V11H16.2779ZM14.9619 11H13.9619V12H14.9619V11ZM14.9619 7.178H15.9619V7.1633L15.9615 7.1486L14.9619 7.178ZM14.6819 6.408L13.908 7.04124L13.9237 7.06048L13.9404 7.07891L14.6819 6.408ZM12.3299 7.15L11.4304 6.7131L11.4253 6.72361L11.4204 6.73424L12.3299 7.15ZM12.1059 11V12H13.1059V11H12.1059ZM10.8039 11H9.80392V12H10.8039V11ZM10.8039 5.204V4.204H9.80392V5.204H10.8039ZM10.969 5.28296L11.081 6.69696L13.0748 6.53904L12.9628 5.12504L10.969 5.28296ZM13.0481 6.37546L12.9921 6.15146L11.0518 6.63653L11.1078 6.86053L13.0481 6.37546ZM12.939 6.79273C13.0386 6.56372 13.1963 6.37953 13.4464 6.22949L12.4174 4.51451C11.8275 4.86847 11.3786 5.36561 11.1049 5.99527L12.939 6.79273ZM13.4602 6.22106C13.7041 6.06929 14.0022 5.98 14.3879 5.98V3.98C13.6723 3.98 12.9997 4.15204 12.4036 4.52294L13.4602 6.22106ZM14.3879 5.98C14.7264 5.98 14.9144 6.0732 15.0447 6.19647L16.4191 4.74353C15.8588 4.21347 15.1507 3.98 14.3879 3.98V5.98ZM15.0651 6.21524C15.1949 6.33135 15.2734 6.47446 15.2781 6.73418L17.2778 6.69782C17.2638 5.93087 16.9783 5.24331 16.3987 4.72476L15.0651 6.21524ZM15.2779 6.716V11H17.2779V6.716H15.2779ZM16.2779 10H14.9619V12H16.2779V10ZM15.9619 11V7.178H13.9619V11H15.9619ZM15.9615 7.1486C15.9466 6.64352 15.791 6.14327 15.4235 5.73709L13.9404 7.07891C13.9408 7.07941 13.9408 7.07939 13.9409 7.07957C13.941 7.07981 13.9427 7.08256 13.9451 7.08924C13.95 7.10254 13.9603 7.13843 13.9624 7.2074L15.9615 7.1486ZM15.4559 5.77476C15.0341 5.25928 14.4299 5.1 13.8839 5.1V7.1C13.9284 7.1 13.9589 7.10317 13.9777 7.10623C13.9963 7.10926 14.0013 7.11184 13.9963 7.10992C13.9909 7.10781 13.9769 7.10162 13.9588 7.08876C13.9403 7.07566 13.9228 7.05932 13.908 7.04124L15.4559 5.77476ZM13.8839 5.1C13.3499 5.1 12.8477 5.25233 12.4062 5.55679L13.5417 7.20321C13.6415 7.13434 13.746 7.1 13.8839 7.1V5.1ZM12.4062 5.55679C11.979 5.85142 11.6564 6.24781 11.4304 6.7131L13.2294 7.5869C13.3208 7.39886 13.4275 7.28192 13.5417 7.20321L12.4062 5.55679ZM11.4204 6.73424C11.201 7.21436 11.1059 7.73879 11.1059 8.284H13.1059C13.1059 7.97054 13.1602 7.73897 13.2394 7.56576L11.4204 6.73424ZM11.1059 8.284V11H13.1059V8.284H11.1059ZM12.1059 10H10.8039V12H12.1059V10ZM11.8039 11V5.204H9.80392V11H11.8039ZM10.8039 6.204H11.9659V4.204H10.8039V6.204ZM18.5422 11H17.5422V12H18.5422V11ZM18.5422 0.163999V-0.836001H17.5422V0.163999H18.5422ZM19.8442 0.163999H20.8442V-0.836001H19.8442V0.163999ZM19.8442 11V12H20.8442V11H19.8442ZM21.2442 7.15L22.0669 6.58157L21.4428 5.67826L20.6016 6.38381L21.2442 7.15ZM23.9042 11V12H25.8106L24.7269 10.4316L23.9042 11ZM22.3782 11L21.5364 11.5398L21.8315 12H22.3782V11ZM20.3762 7.878L19.7336 7.11181L19.0595 7.67719L19.5344 8.4178L20.3762 7.878ZM19.4382 9.152L18.4433 9.25261L18.6294 11.0931L20.0673 9.92931L19.4382 9.152ZM19.3122 7.906L18.6852 7.12695L18.2627 7.467L18.3173 8.00661L19.3122 7.906ZM22.8262 5.078L23.4781 4.31968L22.8473 3.77741L22.1992 4.29895L22.8262 5.078ZM23.6242 5.764L24.2533 6.54131L25.1851 5.78714L24.2761 5.00568L23.6242 5.764ZM19.5422 11V0.163999H17.5422V11H19.5422ZM18.5422 1.164H19.8442V-0.836001H18.5422V1.164ZM18.8442 0.163999V11H20.8442V0.163999H18.8442ZM19.8442 10H18.5422V12H19.8442V10ZM20.4215 7.71843L23.0815 11.5684L24.7269 10.4316L22.0669 6.58157L20.4215 7.71843ZM23.9042 10H22.3782V12H23.9042V10ZM23.22 10.4602L21.218 7.3382L19.5344 8.4178L21.5364 11.5398L23.22 10.4602ZM21.0188 8.64419L21.8868 7.91619L20.6016 6.38381L19.7336 7.11181L21.0188 8.64419ZM20.4331 9.05139L20.3071 7.80539L18.3173 8.00661L18.4433 9.25261L20.4331 9.05139ZM19.9392 8.68505L23.4532 5.85705L22.1992 4.29895L18.6852 7.12695L19.9392 8.68505ZM22.1743 5.83632L22.9723 6.52232L24.2761 5.00568L23.4781 4.31968L22.1743 5.83632ZM22.9951 4.98669L18.8091 8.37469L20.0673 9.92931L24.2533 6.54131L22.9951 4.98669ZM26.6769 5.204L27.6737 5.12504L27.6008 4.204H26.6769V5.204ZM26.7889 6.618L25.8187 6.86053L27.7857 6.53904L26.7889 6.618ZM26.7329 6.394L25.8158 5.99527L25.6803 6.30689L25.7627 6.63653L26.7329 6.394ZM27.6429 5.372L28.1574 6.22949L28.1643 6.22533L28.1712 6.22106L27.6429 5.372ZM30.4429 5.47L29.7557 6.19647L29.7657 6.206L29.7761 6.21524L30.4429 5.47ZM30.9889 6.716H31.9889V6.70691L31.9887 6.69782L30.9889 6.716ZM30.9889 11V12H31.9889V11H30.9889ZM29.6729 11H28.6729V12H29.6729V11ZM29.6729 7.178H30.6729V7.1633L30.6724 7.1486L29.6729 7.178ZM29.3929 6.408L28.6189 7.04124L28.6346 7.06048L28.6513 7.07891L29.3929 6.408ZM27.0409 7.15L26.1414 6.7131L26.1362 6.72361L26.1314 6.73424L27.0409 7.15ZM26.8169 11V12H27.8169V11H26.8169ZM25.5149 11H24.5149V12H25.5149V11ZM25.5149 5.204V4.204H24.5149V5.204H25.5149ZM25.68 5.28296L25.792 6.69696L27.7857 6.53904L27.6737 5.12504L25.68 5.28296ZM27.759 6.37546L27.703 6.15146L25.7627 6.63653L25.8187 6.86053L27.759 6.37546ZM27.6499 6.79273C27.7495 6.56372 27.9073 6.37953 28.1574 6.22949L27.1284 4.51451C26.5384 4.86847 26.0896 5.36561 25.8158 5.99527L27.6499 6.79273ZM28.1712 6.22106C28.4151 6.06929 28.7131 5.98 29.0989 5.98V3.98C28.3832 3.98 27.7106 4.15204 27.1146 4.52294L28.1712 6.22106ZM29.0989 5.98C29.4374 5.98 29.6253 6.0732 29.7557 6.19647L31.1301 4.74353C30.5697 4.21347 29.8617 3.98 29.0989 3.98V5.98ZM29.7761 6.21524C29.9058 6.33135 29.9843 6.47446 29.989 6.73418L31.9887 6.69782C31.9747 5.93087 31.6892 5.24331 31.1097 4.72476L29.7761 6.21524ZM29.9889 6.716V11H31.9889V6.716H29.9889ZM30.9889 10H29.6729V12H30.9889V10ZM30.6729 11V7.178H28.6729V11H30.6729ZM30.6724 7.1486C30.6576 6.64352 30.5019 6.14327 30.1344 5.73709L28.6513 7.07891C28.6518 7.07941 28.6517 7.07939 28.6518 7.07957C28.652 7.07981 28.6536 7.08256 28.6561 7.08924C28.6609 7.10254 28.6713 7.13843 28.6733 7.2074L30.6724 7.1486ZM30.1668 5.77476C29.7451 5.25928 29.1409 5.1 28.5949 5.1V7.1C28.6393 7.1 28.6699 7.10317 28.6886 7.10623C28.7072 7.10926 28.7123 7.11184 28.7073 7.10992C28.7018 7.10781 28.6879 7.10162 28.6697 7.08876C28.6513 7.07566 28.6337 7.05932 28.6189 7.04124L30.1668 5.77476ZM28.5949 5.1C28.0608 5.1 27.5586 5.25233 27.1171 5.55679L28.2526 7.20321C28.3525 7.13434 28.4569 7.1 28.5949 7.1V5.1ZM27.1171 5.55679C26.6899 5.85142 26.3673 6.24781 26.1414 6.7131L27.9404 7.5869C28.0317 7.39886 28.1385 7.28192 28.2526 7.20321L27.1171 5.55679ZM26.1314 6.73424C25.9119 7.21436 25.8169 7.73879 25.8169 8.284H27.8169C27.8169 7.97054 27.8712 7.73897 27.9503 7.56576L26.1314 6.73424ZM25.8169 8.284V11H27.8169V8.284H25.8169ZM26.8169 10H25.5149V12H26.8169V10ZM26.5149 11V5.204H24.5149V11H26.5149ZM25.5149 6.204H26.6769V4.204H25.5149V6.204ZM33.1551 6.478L32.2976 5.9635L32.2938 5.96987L32.2901 5.97628L33.1551 6.478ZM34.3031 5.372L34.7902 6.24536L34.7902 6.24536L34.3031 5.372ZM37.6211 5.372L37.1268 6.24129L37.1268 6.24129L37.6211 5.372ZM38.7271 6.478L39.5996 5.9894L39.5996 5.9894L38.7271 6.478ZM38.7271 9.628L39.5997 10.1166L39.6037 10.1093L38.7271 9.628ZM37.6071 10.734L37.1201 9.86061L37.1128 9.86471L37.6071 10.734ZM34.2891 10.762L33.8079 11.6386L33.818 11.6442L33.8283 11.6495L34.2891 10.762ZM33.1551 9.684L32.2901 10.1857L32.2961 10.196L32.3023 10.2062L33.1551 9.684ZM34.3031 9.082L33.4252 9.56089L33.4316 9.57226L34.3031 9.082ZM34.9751 9.796L34.4401 10.6408L34.4463 10.6448L34.4526 10.6486L34.9751 9.796ZM36.8931 9.796L36.3706 8.9434L36.3643 8.94724L36.3581 8.95118L36.8931 9.796ZM37.5651 9.082L38.4483 9.55119L38.4541 9.53996L37.5651 9.082ZM37.5651 7.052L36.6761 7.50999L36.682 7.52115L37.5651 7.052ZM36.8931 6.324L36.3384 7.15605L36.3543 7.16663L36.3706 7.1766L36.8931 6.324ZM34.9611 6.324L34.419 5.4837L34.4127 5.48778L34.4064 5.49195L34.9611 6.324ZM34.2891 7.066L33.4112 6.58712L33.406 6.59684L34.2891 7.066ZM33.7491 8.046C33.7491 7.6303 33.8443 7.28289 34.0202 6.97972L32.2901 5.97628C31.9246 6.60644 31.7491 7.30437 31.7491 8.046H33.7491ZM34.0126 6.9925C34.2007 6.67906 34.4542 6.43274 34.7902 6.24536L33.8161 4.49864C33.1814 4.8526 32.6696 5.3436 32.2976 5.9635L34.0126 6.9925ZM34.7902 6.24536C35.111 6.06649 35.4907 5.966 35.9551 5.966V3.966C35.1875 3.966 34.466 4.13618 33.8161 4.49864L34.7902 6.24536ZM35.9551 5.966C36.4443 5.966 36.824 6.06908 37.1268 6.24129L38.1154 4.50271C37.4663 4.13359 36.7353 3.966 35.9551 3.966V5.966ZM37.1268 6.24129C37.4484 6.42414 37.6845 6.66285 37.8546 6.9666L39.5996 5.9894C39.2471 5.35982 38.7459 4.86119 38.1154 4.50271L37.1268 6.24129ZM37.8546 6.9666C38.0256 7.27189 38.1191 7.624 38.1191 8.046H40.1191C40.1191 7.31066 39.9514 6.61744 39.5996 5.9894L37.8546 6.9666ZM38.1191 8.046C38.1191 8.46781 38.0256 8.8279 37.8506 9.14674L39.6037 10.1093C39.9513 9.4761 40.1191 8.78152 40.1191 8.046H38.1191ZM37.8546 9.1394C37.6873 9.43814 37.4504 9.67641 37.1201 9.86064L38.0942 11.6074C38.7345 11.2503 39.2443 10.7512 39.5996 10.1166L37.8546 9.1394ZM37.1128 9.86471C36.81 10.0369 36.4303 10.14 35.9411 10.14V12.14C36.7213 12.14 37.4523 11.9724 38.1014 11.6033L37.1128 9.86471ZM35.9411 10.14C35.465 10.14 35.0758 10.0437 34.75 9.8745L33.8283 11.6495C34.4732 11.9843 35.1852 12.14 35.9411 12.14V10.14ZM34.7704 9.88542C34.445 9.70676 34.1959 9.46875 34.008 9.16185L32.3023 10.2062C32.6744 10.8139 33.1813 11.2946 33.8079 11.6386L34.7704 9.88542ZM34.0202 9.18228C33.8511 8.89085 33.7491 8.5235 33.7491 8.046H31.7491C31.7491 8.81916 31.9178 9.54382 32.2901 10.1857L34.0202 9.18228ZM33.0511 8.06C33.0511 8.58958 33.172 9.09654 33.4252 9.56085L35.181 8.60315C35.0983 8.45146 35.0511 8.27708 35.0511 8.06H33.0511ZM33.4316 9.57226C33.6778 10.0101 34.0155 10.3719 34.4401 10.6408L35.5102 8.95118C35.3748 8.86544 35.2645 8.75128 35.1747 8.59174L33.4316 9.57226ZM34.4526 10.6486C34.9021 10.9241 35.4008 11.062 35.9271 11.062V9.062C35.7628 9.062 35.6269 9.02257 35.4977 8.9434L34.4526 10.6486ZM35.9271 11.062C36.4613 11.062 36.9726 10.9294 37.4282 10.6408L36.3581 8.95118C36.2537 9.0173 36.121 9.062 35.9271 9.062V11.062ZM37.4157 10.6486C37.8568 10.3783 38.2055 10.0081 38.4483 9.55116L36.682 8.61284C36.6074 8.75322 36.5082 8.85905 36.3706 8.9434L37.4157 10.6486ZM38.4541 9.53996C38.6913 9.0795 38.8031 8.58 38.8031 8.06H36.8031C36.8031 8.28666 36.7563 8.4685 36.6762 8.62404L38.4541 9.53996ZM38.8031 8.06C38.8031 7.5404 38.6914 7.04054 38.4483 6.58284L36.682 7.52115C36.7562 7.66079 36.8031 7.83294 36.8031 8.06H38.8031ZM38.4541 6.59404C38.2135 6.12705 37.8644 5.74639 37.4157 5.4714L36.3706 7.1766C36.5006 7.25628 36.5994 7.36095 36.6762 7.50996L38.4541 6.59404ZM37.4478 5.49195C36.9901 5.18677 36.4717 5.044 35.9271 5.044V7.044C36.1106 7.044 36.2362 7.08789 36.3384 7.15605L37.4478 5.49195ZM35.9271 5.044C35.3863 5.044 34.875 5.18952 34.419 5.4837L35.5033 7.1643C35.626 7.08514 35.7587 7.044 35.9271 7.044V5.044ZM34.4064 5.49195C33.9859 5.77232 33.6534 6.14324 33.4112 6.58715L35.167 7.54485C35.2609 7.37276 35.3764 7.24902 35.5158 7.15605L34.4064 5.49195ZM33.406 6.59684C33.1648 7.05089 33.0511 7.54522 33.0511 8.06H35.0511C35.0511 7.84678 35.0961 7.67845 35.1723 7.53515L33.406 6.59684ZM44.4143 5.204L45.3305 4.80335L45.0685 4.204H44.4143V5.204ZM46.1223 9.11L46.2327 10.1039L47.5827 9.95388L47.0385 8.70935L46.1223 9.11ZM45.8703 9.138L44.9437 8.76207L44.3128 10.3172L45.9807 10.1319L45.8703 9.138ZM47.4663 5.204V4.204H46.7928L46.5397 4.82806L47.4663 5.204ZM48.7403 5.204L49.658 5.6012L50.2628 4.204H48.7403V5.204ZM46.0803 11.35L45.1747 11.7741L46.1162 13.7846L46.998 11.7472L46.0803 11.35ZM44.2183 7.374L45.1239 6.94989L44.1752 4.92399L43.2983 6.98204L44.2183 7.374ZM42.5243 11.35L41.6081 11.7507L42.5363 13.8731L43.4443 11.742L42.5243 11.35ZM39.8363 5.204V4.204H38.3075L38.9201 5.60471L39.8363 5.204ZM41.1103 5.204L42.025 4.7999L41.7618 4.204H41.1103V5.204ZM42.9163 9.292L42.732 10.2749L44.5984 10.6248L43.831 8.8879L42.9163 9.292ZM42.4683 9.208L41.5496 8.81304L41.0562 9.96066L42.284 10.1909L42.4683 9.208ZM43.7563 6.212L44.675 6.60696L44.8504 6.19901L44.6654 5.79535L43.7563 6.212ZM43.2943 5.204V4.204H41.7359L42.3852 5.62065L43.2943 5.204ZM43.4981 5.60465L45.2061 9.51065L47.0385 8.70935L45.3305 4.80335L43.4981 5.60465ZM46.0119 8.11612L45.7599 8.14412L45.9807 10.1319L46.2327 10.1039L46.0119 8.11612ZM46.797 9.51393L48.393 5.57993L46.5397 4.82806L44.9437 8.76207L46.797 9.51393ZM47.4663 6.204H48.7403V4.204H47.4663V6.204ZM47.8226 4.8068L45.1626 10.9528L46.998 11.7472L49.658 5.6012L47.8226 4.8068ZM46.9859 10.9259L45.1239 6.94989L43.3127 7.79811L45.1747 11.7741L46.9859 10.9259ZM43.2983 6.98204L41.6043 10.958L43.4443 11.742L45.1383 7.76596L43.2983 6.98204ZM43.4405 10.9493L40.7525 4.80329L38.9201 5.60471L41.6081 11.7507L43.4405 10.9493ZM39.8363 6.204H41.1103V4.204H39.8363V6.204ZM40.1956 5.6081L42.0016 9.6961L43.831 8.8879L42.025 4.7999L40.1956 5.6081ZM43.1006 8.30913L42.6526 8.22513L42.284 10.1909L42.732 10.2749L43.1006 8.30913ZM43.387 9.60296L44.675 6.60696L42.8376 5.81704L41.5496 8.81304L43.387 9.60296ZM44.6654 5.79535L44.2034 4.78734L42.3852 5.62065L42.8472 6.62865L44.6654 5.79535ZM43.2943 6.204H44.4143V4.204H43.2943V6.204ZM51.2999 5.204L52.2968 5.12504L52.2238 4.204H51.2999V5.204ZM51.4119 6.618L50.4418 6.86053L52.4088 6.53904L51.4119 6.618ZM51.3559 6.394L50.4388 5.99527L50.3034 6.30689L50.3858 6.63653L51.3559 6.394ZM52.2659 5.372L52.7804 6.22949L52.7873 6.22533L52.7942 6.22106L52.2659 5.372ZM55.0659 5.47L54.3787 6.19647L54.3888 6.206L54.3991 6.21524L55.0659 5.47ZM55.6119 6.716H56.6119V6.70691L56.6117 6.69782L55.6119 6.716ZM55.6119 11V12H56.6119V11H55.6119ZM54.2959 11H53.2959V12H54.2959V11ZM54.2959 7.178H55.2959V7.1633L55.2955 7.1486L54.2959 7.178ZM54.0159 6.408L53.2419 7.04124L53.2577 7.06048L53.2744 7.07891L54.0159 6.408ZM51.6639 7.15L50.7644 6.7131L50.7593 6.72361L50.7544 6.73424L51.6639 7.15ZM51.4399 11V12H52.4399V11H51.4399ZM50.1379 11H49.1379V12H50.1379V11ZM50.1379 5.204V4.204H49.1379V5.204H50.1379ZM50.303 5.28296L50.415 6.69696L52.4088 6.53904L52.2968 5.12504L50.303 5.28296ZM52.382 6.37546L52.326 6.15146L50.3858 6.63653L50.4418 6.86053L52.382 6.37546ZM52.273 6.79273C52.3725 6.56372 52.5303 6.37953 52.7804 6.22949L51.7514 4.51451C51.1615 4.86847 50.7126 5.36561 50.4388 5.99527L52.273 6.79273ZM52.7942 6.22106C53.0381 6.06929 53.3362 5.98 53.7219 5.98V3.98C53.0063 3.98 52.3337 4.15204 51.7376 4.52294L52.7942 6.22106ZM53.7219 5.98C54.0604 5.98 54.2484 6.0732 54.3787 6.19647L55.7531 4.74353C55.1928 4.21347 54.4847 3.98 53.7219 3.98V5.98ZM54.3991 6.21524C54.5289 6.33135 54.6073 6.47446 54.6121 6.73418L56.6117 6.69782C56.5978 5.93087 56.3123 5.24331 55.7327 4.72476L54.3991 6.21524ZM54.6119 6.716V11H56.6119V6.716H54.6119ZM55.6119 10H54.2959V12H55.6119V10ZM55.2959 11V7.178H53.2959V11H55.2959ZM55.2955 7.1486C55.2806 6.64352 55.1249 6.14327 54.7574 5.73709L53.2744 7.07891C53.2748 7.07941 53.2748 7.07939 53.2749 7.07957C53.275 7.07981 53.2767 7.08256 53.2791 7.08924C53.2839 7.10254 53.2943 7.13843 53.2963 7.2074L55.2955 7.1486ZM54.7899 5.77476C54.3681 5.25928 53.7639 5.1 53.2179 5.1V7.1C53.2624 7.1 53.2929 7.10317 53.3117 7.10623C53.3303 7.10926 53.3353 7.11184 53.3303 7.10992C53.3249 7.10781 53.3109 7.10162 53.2928 7.08876C53.2743 7.07566 53.2567 7.05932 53.2419 7.04124L54.7899 5.77476ZM53.2179 5.1C52.6839 5.1 52.1816 5.25233 51.7402 5.55679L52.8756 7.20321C52.9755 7.13434 53.08 7.1 53.2179 7.1V5.1ZM51.7402 5.55679C51.313 5.85142 50.9904 6.24781 50.7644 6.7131L52.5634 7.5869C52.6548 7.39886 52.7615 7.28192 52.8756 7.20321L51.7402 5.55679ZM50.7544 6.73424C50.5349 7.21436 50.4399 7.73879 50.4399 8.284H52.4399C52.4399 7.97054 52.4942 7.73897 52.5734 7.56576L50.7544 6.73424ZM50.4399 8.284V11H52.4399V8.284H50.4399ZM51.4399 10H50.1379V12H51.4399V10ZM51.1379 11V5.204H49.1379V11H51.1379ZM50.1379 6.204H51.2999V4.204H50.1379V6.204ZM61.6199 11L60.6978 10.613L60.1157 12H61.6199V11ZM66.0439 0.458V-0.542H65.379L65.1218 0.0710379L66.0439 0.458ZM66.1279 0.458L67.0504 0.0720798L66.7935 -0.542H66.1279V0.458ZM70.5379 11V12H72.0402L71.4604 10.6141L70.5379 11ZM68.9839 11L68.0531 11.3655L68.3022 12H68.9839V11ZM65.6799 2.586L65.1336 1.74839L64.4514 2.19334L64.7491 2.95151L65.6799 2.586ZM66.6459 1.956L67.5716 2.3343L68.7839 -0.632227L66.0996 1.11839L66.6459 1.956ZM62.9499 11V12H63.6215L63.8756 11.3783L62.9499 11ZM64.2099 7.164V6.164H63.4891L63.2612 6.84777L64.2099 7.164ZM67.9759 7.164L68.9104 6.808L68.665 6.164H67.9759V7.164ZM68.4239 8.34V9.34H69.8749L69.3584 7.984L68.4239 8.34ZM63.8179 8.34L62.8692 8.02377L62.4304 9.34H63.8179V8.34ZM62.542 11.387L66.966 0.844962L65.1218 0.0710379L60.6978 10.613L62.542 11.387ZM66.0439 1.458H66.1279V-0.542H66.0439V1.458ZM65.2053 0.84392L69.6153 11.3859L71.4604 10.6141L67.0504 0.0720798L65.2053 0.84392ZM70.5379 10H68.9839V12H70.5379V10ZM69.9147 10.6345L66.6107 2.22049L64.7491 2.95151L68.0531 11.3655L69.9147 10.6345ZM66.2261 3.42361L67.1921 2.79361L66.0996 1.11839L65.1336 1.74839L66.2261 3.42361ZM65.7202 1.5777L62.0242 10.6217L63.8756 11.3783L67.5716 2.3343L65.7202 1.5777ZM62.9499 10H61.6199V12H62.9499V10ZM64.2099 8.164H67.9759V6.164H64.2099V8.164ZM67.0414 7.51999L67.4894 8.69599L69.3584 7.984L68.9104 6.808L67.0414 7.51999ZM68.4239 7.34H63.8179V9.34H68.4239V7.34ZM64.7666 8.65623L65.1586 7.48023L63.2612 6.84777L62.8692 8.02377L64.7666 8.65623ZM73.2843 5.204L74.2815 5.12921L74.2121 4.204H73.2843V5.204ZM73.4103 6.884L72.4558 7.18227L74.4075 6.80921L73.4103 6.884ZM73.3403 6.66L72.4186 6.27194L72.2767 6.6091L72.3858 6.95827L73.3403 6.66ZM73.9843 5.764L74.6392 6.51969L74.6411 6.51808L73.9843 5.764ZM74.8803 5.19L75.2708 6.11058L75.2774 6.1078L75.2839 6.10492L74.8803 5.19ZM75.7063 4.98L76.7048 5.03427L76.7621 3.98H75.7063V4.98ZM75.6363 6.268L75.5726 7.26597L76.58 7.33027L76.6348 6.32227L75.6363 6.268ZM74.4743 6.52L73.9704 5.65615L73.9598 5.66251L74.4743 6.52ZM73.6903 7.304L72.8328 6.7895L72.8273 6.79863L72.822 6.80786L73.6903 7.304ZM73.4103 11V12H74.4103V11H73.4103ZM72.1223 11H71.1223V12H72.1223V11ZM72.1223 5.204V4.204H71.1223V5.204H72.1223ZM72.2871 5.27879L72.4131 6.95879L74.4075 6.80921L74.2815 5.12921L72.2871 5.27879ZM74.3648 6.58573L74.2948 6.36173L72.3858 6.95827L72.4558 7.18227L74.3648 6.58573ZM74.2619 7.04806C74.3541 6.82914 74.4797 6.65797 74.6392 6.51969L73.3294 5.00831C72.9289 5.35536 72.6251 5.78152 72.4186 6.27194L74.2619 7.04806ZM74.6411 6.51808C74.8624 6.32529 75.0728 6.19458 75.2708 6.11058L74.4897 4.26942C74.0717 4.44675 73.6848 4.69871 73.3275 5.00992L74.6411 6.51808ZM75.2839 6.10492C75.5305 5.99614 75.6626 5.98 75.7063 5.98V3.98C75.2833 3.98 74.8648 4.10386 74.4766 4.27508L75.2839 6.10492ZM74.7078 4.92573L74.6378 6.21373L76.6348 6.32227L76.7048 5.03427L74.7078 4.92573ZM75.7 5.27003C75.0897 5.23107 74.4998 5.34742 73.9704 5.65622L74.9782 7.38378C75.1208 7.30058 75.3056 7.24893 75.5726 7.26597L75.7 5.27003ZM73.9598 5.66251C73.4924 5.94296 73.1132 6.32209 72.8328 6.7895L74.5478 7.8185C74.6593 7.63258 74.8029 7.48904 74.9888 7.37749L73.9598 5.66251ZM72.822 6.80786C72.5497 7.28439 72.4103 7.80522 72.4103 8.354H74.4103C74.4103 8.15611 74.4575 7.97694 74.5585 7.80014L72.822 6.80786ZM72.4103 8.354V11H74.4103V8.354H72.4103ZM73.4103 10H72.1223V12H73.4103V10ZM73.1223 11V5.204H71.1223V11H73.1223ZM72.1223 6.204H73.2843V4.204H72.1223V6.204ZM77.946 2.656V1.656H76.946V2.656H77.946ZM79.248 2.656H80.248V1.656H79.248V2.656ZM79.248 5.232H78.248V6.232H79.248V5.232ZM80.844 5.232H81.844V4.232H80.844V5.232ZM80.844 6.254V7.254H81.844V6.254H80.844ZM79.248 6.254V5.254H78.248V6.254H79.248ZM79.248 11V12H80.248V11H79.248ZM77.946 11H76.946V12H77.946V11ZM77.946 6.254H78.946V5.254H77.946V6.254ZM76.882 6.254H75.882V7.254H76.882V6.254ZM76.882 5.232V4.232H75.882V5.232H76.882ZM77.946 5.232V6.232H78.946V5.232H77.946ZM77.946 3.656H79.248V1.656H77.946V3.656ZM78.248 2.656V5.232H80.248V2.656H78.248ZM79.248 6.232H80.844V4.232H79.248V6.232ZM79.844 5.232V6.254H81.844V5.232H79.844ZM80.844 5.254H79.248V7.254H80.844V5.254ZM78.248 6.254V11H80.248V6.254H78.248ZM79.248 10H77.946V12H79.248V10ZM78.946 11V6.254H76.946V11H78.946ZM77.946 5.254H76.882V7.254H77.946V5.254ZM77.882 6.254V5.232H75.882V6.254H77.882ZM76.882 6.232H77.946V4.232H76.882V6.232ZM78.946 5.232V2.656H76.946V5.232H78.946ZM82.4172 5.204V4.204H81.4172V5.204H82.4172ZM83.7192 5.204H84.7192V4.204H83.7192V5.204ZM83.7192 11V12H84.7192V11H83.7192ZM82.4172 11H81.4172V12H82.4172V11ZM82.5572 2.586L81.917 1.81778L81.9062 1.82682L81.8956 1.83616L82.5572 2.586ZM83.6212 2.586L82.9373 3.31554L82.9483 3.32586L82.9596 3.33584L83.6212 2.586ZM83.6212 3.636L84.2797 4.38858L84.2828 4.38584L83.6212 3.636ZM82.5572 3.622L81.8956 4.37184L81.9062 4.38118L81.917 4.39022L82.5572 3.622ZM82.4172 6.204H83.7192V4.204H82.4172V6.204ZM82.7192 5.204V11H84.7192V5.204H82.7192ZM83.7192 10H82.4172V12H83.7192V10ZM83.4172 11V5.204H81.4172V11H83.4172ZM83.3192 3.104C83.3192 3.13367 83.3126 3.18307 83.2874 3.238C83.2625 3.29218 83.2322 3.32404 83.2188 3.33584L81.8956 1.83616C81.5293 2.15938 81.3192 2.6019 81.3192 3.104H83.3192ZM83.1974 3.35422C83.2074 3.34586 83.2014 3.3531 83.1787 3.36184C83.1545 3.37114 83.1273 3.376 83.1032 3.376V1.376C82.646 1.376 82.2426 1.54649 81.917 1.81778L83.1974 3.35422ZM83.1032 3.376C83.0792 3.376 83.0432 3.37111 83.004 3.35524C82.9656 3.33967 82.9435 3.32136 82.9373 3.31554L84.3051 1.85646C83.9795 1.55121 83.5654 1.376 83.1032 1.376V3.376ZM82.9596 3.33584C82.9462 3.32404 82.9159 3.29218 82.891 3.238C82.8658 3.18307 82.8592 3.13367 82.8592 3.104H84.8592C84.8592 2.6019 84.6491 2.15938 84.2828 1.83616L82.9596 3.33584ZM82.8592 3.104C82.8592 3.08547 82.8633 3.04236 82.8869 2.98963C82.9106 2.93655 82.9414 2.90219 82.9596 2.88616L84.2828 4.38584C84.6602 4.05288 84.8592 3.60082 84.8592 3.104H82.8592ZM82.9627 2.88342C82.9711 2.87608 82.9924 2.86035 83.0258 2.84771C83.0594 2.83501 83.0878 2.832 83.1032 2.832V4.832C83.5447 4.832 83.9506 4.67657 84.2797 4.38858L82.9627 2.88342ZM83.1032 2.832C83.1273 2.832 83.1545 2.83686 83.1787 2.84615C83.2014 2.8549 83.2074 2.86214 83.1974 2.85378L81.917 4.39022C82.2426 4.66151 82.646 4.832 83.1032 4.832V2.832ZM83.2188 2.87216C83.2322 2.88396 83.2625 2.91582 83.2874 2.97C83.3126 3.02493 83.3192 3.07433 83.3192 3.104H81.3192C81.3192 3.6061 81.5293 4.04862 81.8956 4.37184L83.2188 2.87216ZM86.3919 10.902L86.0283 11.8336L86.0419 11.8389L86.0556 11.8437L86.3919 10.902ZM85.4399 10.244L84.6292 9.65851L84.1644 10.3021L84.6858 10.9008L85.4399 10.244ZM85.9859 9.488L86.679 8.76717L85.8492 7.96929L85.1752 8.90251L85.9859 9.488ZM86.7279 10.02L86.2941 10.921L86.3138 10.9305L86.334 10.9391L86.7279 10.02ZM88.0159 10.118L88.2981 11.0774L88.2981 11.0774L88.0159 10.118ZM88.3939 9.894L87.6567 9.21827L87.654 9.22133L88.3939 9.894ZM88.3379 8.956L87.6574 9.68879L87.67 9.70046L87.683 9.71169L88.3379 8.956ZM87.8199 8.662L87.4781 9.60189L87.4914 9.6065L87.8199 8.662ZM87.1619 8.452L86.8457 9.40068L86.8688 9.40839L86.8923 9.41496L87.1619 8.452ZM86.0699 7.794L86.8132 7.12504L86.8132 7.12503L86.0699 7.794ZM85.9159 5.918L85.0531 5.41225L85.0476 5.42186L85.9159 5.918ZM86.6019 5.26L86.123 4.38203L86.1116 4.38842L86.6019 5.26ZM88.8139 5.162L88.5061 6.11344L88.5188 6.11758L88.5317 6.12137L88.8139 5.162ZM89.7099 5.638L90.553 6.17582L91.0361 5.41838L90.3346 4.85713L89.7099 5.638ZM89.1919 6.45L88.4659 7.13774L89.3464 8.06714L90.035 6.98782L89.1919 6.45ZM88.5899 6.058L88.2512 6.99889L88.2512 6.99889L88.5899 6.058ZM87.9599 5.918L87.9012 6.91631L87.91 6.91675L87.9599 5.918ZM87.4979 5.988L87.1468 5.05167L87.1366 5.05549L87.1265 5.05952L87.4979 5.988ZM87.2039 7.066L87.8843 6.33321L87.8843 6.33321L87.2039 7.066ZM87.7079 7.36L87.3661 8.29979L87.3912 8.30891L87.4167 8.31667L87.7079 7.36ZM88.3379 7.57L87.9961 8.50979L88.0273 8.52111L88.0591 8.53035L88.3379 7.57ZM89.1079 7.906L88.5779 8.754L88.5779 8.754L89.1079 7.906ZM89.6399 8.424L88.7962 8.96088L88.8047 8.97424L88.8137 8.98734L89.6399 8.424ZM89.5979 10.16L88.7263 9.66971L88.7211 9.67917L89.5979 10.16ZM88.8559 10.86L89.3133 11.7493L89.3226 11.7444L88.8559 10.86ZM87.5959 10.112C87.3014 10.112 87.0138 10.0622 86.7282 9.96026L86.0556 11.8437C86.554 12.0218 87.069 12.112 87.5959 12.112V10.112ZM86.7554 9.97042C86.5123 9.87555 86.3325 9.74623 86.194 9.58722L84.6858 10.9008C85.0513 11.3204 85.5061 11.6298 86.0283 11.8336L86.7554 9.97042ZM86.2506 10.8295L86.7966 10.0735L85.1752 8.90251L84.6292 9.65851L86.2506 10.8295ZM85.2928 10.2088C85.5967 10.5011 85.9295 10.7455 86.2941 10.921L87.1617 9.119C87.0223 9.05187 86.8604 8.94156 86.679 8.76717L85.2928 10.2088ZM86.334 10.9391C86.7038 11.0977 87.0941 11.188 87.4979 11.188V9.188C87.3976 9.188 87.2746 9.16634 87.1218 9.10085L86.334 10.9391ZM87.4979 11.188C87.768 11.188 88.0368 11.1542 88.2981 11.0774L87.7337 9.15863C87.6776 9.17514 87.6011 9.188 87.4979 9.188V11.188ZM88.2981 11.0774C88.5987 10.989 88.8952 10.8291 89.1338 10.5667L87.654 9.22133C87.6779 9.19502 87.7017 9.17729 87.7196 9.16671C87.7366 9.15665 87.7434 9.15578 87.7337 9.15863L88.2981 11.0774ZM89.131 10.5697C89.4393 10.2334 89.5479 9.8229 89.5479 9.446H87.5479C87.5479 9.44835 87.5475 9.41994 87.5637 9.37292C87.5809 9.32284 87.6115 9.26758 87.6567 9.21828L89.131 10.5697ZM89.5479 9.446C89.5479 8.98592 89.3773 8.53353 88.9928 8.20031L87.683 9.71169C87.6437 9.67763 87.6034 9.62673 87.5762 9.56342C87.5502 9.50275 87.5479 9.45788 87.5479 9.446H89.5479ZM89.0183 8.22321C88.7625 7.98566 88.4592 7.82561 88.1484 7.7175L87.4914 9.6065C87.6099 9.64772 87.6519 9.68368 87.6574 9.68879L89.0183 8.22321ZM88.1616 7.72221C87.9302 7.63804 87.6866 7.56046 87.4315 7.48904L86.8923 9.41496C87.1039 9.47421 87.2989 9.53663 87.4781 9.60179L88.1616 7.72221ZM87.4781 7.50332C87.1137 7.38183 86.9172 7.24066 86.8132 7.12504L85.3266 8.46296C85.7265 8.90734 86.2581 9.20484 86.8457 9.40068L87.4781 7.50332ZM86.8132 7.12503C86.7379 7.04135 86.6919 6.94391 86.6919 6.772H84.6919C84.6919 7.40275 84.8979 7.98665 85.3266 8.46296L86.8132 7.12503ZM86.6919 6.772C86.6919 6.63379 86.7232 6.52073 86.7841 6.41414L85.0476 5.42186C84.8099 5.83793 84.6919 6.29421 84.6919 6.772H86.6919ZM86.7786 6.42372C86.8396 6.31972 86.9332 6.221 87.0922 6.13158L86.1116 4.38842C85.6733 4.635 85.3096 4.97495 85.0532 5.41228L86.7786 6.42372ZM87.0807 6.1379C87.2067 6.0692 87.41 6.008 87.7359 6.008V4.008C87.1658 4.008 86.6131 4.1148 86.123 4.3821L87.0807 6.1379ZM87.7359 6.008C88.0533 6.008 88.306 6.04872 88.5061 6.11344L89.1217 4.21056C88.6871 4.06995 88.2212 4.008 87.7359 4.008V6.008ZM88.5317 6.12137C88.7142 6.17504 88.8981 6.26919 89.0852 6.41887L90.3346 4.85713C89.9617 4.55881 89.5482 4.33562 89.0961 4.20263L88.5317 6.12137ZM88.8668 5.10018L88.3488 5.91218L90.035 6.98782L90.553 6.17582L88.8668 5.10018ZM89.9178 5.76225C89.6406 5.46965 89.3067 5.25323 88.9286 5.11711L88.2512 6.99889C88.3397 7.03077 88.4071 7.07568 88.4659 7.13774L89.9178 5.76225ZM88.9286 5.11711C88.6308 5.00989 88.3213 4.93482 88.0098 4.91925L87.91 6.91675C87.9719 6.91985 88.0823 6.9381 88.2512 6.99889L88.9286 5.11711ZM88.0186 4.91973C87.72 4.90216 87.4264 4.9468 87.1468 5.05167L87.849 6.92433C87.868 6.9172 87.8824 6.91517 87.9012 6.91627L88.0186 4.91973ZM87.1265 5.05952C86.8583 5.16682 86.6118 5.3291 86.408 5.55333L87.8878 6.89867C87.8807 6.90654 87.8733 6.91259 87.8677 6.91643C87.8623 6.92009 87.8618 6.91946 87.8693 6.91648L87.1265 5.05952ZM86.408 5.55333C86.1456 5.8419 86.0079 6.20372 86.0079 6.59H88.0079C88.0079 6.63324 88.0002 6.69055 87.9762 6.75298C87.9522 6.81556 87.9188 6.86455 87.8878 6.89867L86.408 5.55333ZM86.0079 6.59C86.0079 7.0334 86.1676 7.46834 86.5234 7.79879L87.8843 6.33321C87.9206 6.36691 87.957 6.4157 87.9816 6.47525C88.0052 6.53266 88.0079 6.57583 88.0079 6.59H86.0079ZM86.5234 7.79879C86.7714 8.02908 87.0627 8.18947 87.3661 8.29979L88.0496 6.42021C87.9424 6.3812 87.8977 6.34558 87.8843 6.33321L86.5234 7.79879ZM87.4167 8.31667C87.6148 8.37697 87.808 8.44136 87.9961 8.50979L88.6796 6.63021C88.4572 6.5493 88.2303 6.4737 87.9991 6.40333L87.4167 8.31667ZM88.0591 8.53035C88.2721 8.59219 88.4421 8.66914 88.5779 8.754L89.6379 7.058C89.3257 6.86286 88.9824 6.71581 88.6167 6.60965L88.0591 8.53035ZM88.5779 8.754C88.6864 8.82182 88.7523 8.89181 88.7962 8.96088L90.4836 7.88712C90.2662 7.54553 89.9774 7.27018 89.6379 7.058L88.5779 8.754ZM88.8137 8.98734C88.8159 8.99066 88.8499 9.03854 88.8499 9.194H90.8499C90.8499 8.73346 90.7439 8.26801 90.4661 7.86066L88.8137 8.98734ZM88.8499 9.194C88.8499 9.36899 88.8094 9.52197 88.7263 9.66974L90.4695 10.6503C90.7223 10.2007 90.8499 9.70967 90.8499 9.194H88.8499ZM88.7211 9.67917C88.6703 9.77184 88.5788 9.87552 88.3891 9.97562L89.3226 11.7444C89.805 11.4898 90.2082 11.1268 90.4747 10.6408L88.7211 9.67917ZM88.3985 9.97071C88.2582 10.0429 88.0097 10.112 87.5959 10.112V12.112C88.2087 12.112 88.8002 12.0131 89.3132 11.7493L88.3985 9.97071ZM92.2331 2.656V1.656H91.2331V2.656H92.2331ZM93.5351 2.656H94.5351V1.656H93.5351V2.656ZM93.5351 5.232H92.5351V6.232H93.5351V5.232ZM95.1311 5.232H96.1311V4.232H95.1311V5.232ZM95.1311 6.254V7.254H96.1311V6.254H95.1311ZM93.5351 6.254V5.254H92.5351V6.254H93.5351ZM93.5351 11V12H94.5351V11H93.5351ZM92.2331 11H91.2331V12H92.2331V11ZM92.2331 6.254H93.2331V5.254H92.2331V6.254ZM91.1691 6.254H90.1691V7.254H91.1691V6.254ZM91.1691 5.232V4.232H90.1691V5.232H91.1691ZM92.2331 5.232V6.232H93.2331V5.232H92.2331ZM92.2331 3.656H93.5351V1.656H92.2331V3.656ZM92.5351 2.656V5.232H94.5351V2.656H92.5351ZM93.5351 6.232H95.1311V4.232H93.5351V6.232ZM94.1311 5.232V6.254H96.1311V5.232H94.1311ZM95.1311 5.254H93.5351V7.254H95.1311V5.254ZM92.5351 6.254V11H94.5351V6.254H92.5351ZM93.5351 10H92.2331V12H93.5351V10ZM93.2331 11V6.254H91.2331V11H93.2331ZM92.2331 5.254H91.1691V7.254H92.2331V5.254ZM92.1691 6.254V5.232H90.1691V6.254H92.1691ZM91.1691 6.232H92.2331V4.232H91.1691V6.232ZM93.2331 5.232V2.656H91.2331V5.232H93.2331Z" fill="url(#paint0_linear_202_2)"/>
<defs>
<filter id="filter0_i_202_2" x="0.759705" y="0.164001" width="94.3713" height="15.186" filterUnits="userSpaceOnUse" color-interpolation-filters="sRGB">
<feFlood flood-opacity="0" result="BackgroundImageFix"/>
<feBlend mode="normal" in="SourceGraphic" in2="BackgroundImageFix" result="shape"/>
<feColorMatrix in="SourceAlpha" type="matrix" values="0 0 0 0 0 0 0 0 0 0 0 0 0 0 0 0 0 0 127 0" result="hardAlpha"/>
<feOffset dy="4"/>
<feGaussianBlur stdDeviation="2"/>
<feComposite in2="hardAlpha" operator="arithmetic" k2="-1" k3="1"/>
<feColorMatrix type="matrix" values="0 0 0 0 0 0 0 0 0 0 0 0 0 0 0 0 0 0 0.25 0"/>
<feBlend mode="normal" in2="shape" result="effect1_innerShadow_202_2"/>
</filter>
<linearGradient id="paint0_linear_202_2" x1="47.5" y1="4.54809e-07" x2="50.5" y2="29.5" gradientUnits="userSpaceOnUse">
<stop stop-opacity="0.63"/>
<stop offset="1" stop-color="#77A99A" stop-opacity="0"/>
</linearGradient>
</defs>
</svg>
